{"asset":{"generator":"glTF-Transform v1.2.3","version":"2.0"},"accessors":[{"type":"SCALAR","componentType":5123,"count":53052,"bufferView":0,"byteOffset":0},{"type":"VEC3","componentType":5126,"count":9279,"max":[4.276320934295654,3.9725468158721924,2.5903584957122803],"min":[-4.276320934295654,-3.9725465774536133,-2.5903775691986084],"bufferView":1,"byteOffset":0},{"type":"VEC3","componentType":5126,"count":9279,"bufferView":1,"byteOffset":12},{"type":"VEC2","componentType":5126,"count":9279,"bufferView":1,"byteOffset":24}],"bufferViews":[{"buffer":0,"byteOffset":0,"byteLength":106104,"target":34963},{"buffer":0,"byteOffset":106104,"byteLength":296928,"byteStride":32,"target":34962}],"buffers":[{"uri":"LeePerrySmith.bin","byteLength":403032}],"materials":[{"name":"Material.002","pbrMetallicRoughness":{"baseColorFactor":[0.665386974811554,0.6653873324394226,0.8227859139442444,1],"metallicFactor":0}}],"meshes":[{"name":"LeePerrySmith","primitives":[{"attributes":{"NORMAL":2,"POSITION":1,"TEXCOORD_0":3},"mode":4,"material":0,"indices":0}]}],"nodes":[{"name":"Camera","translation":[7.481131553649902,5.34366512298584,6.5076398849487305],"rotation":[0.483536034822464,0.33687159419059753,-0.20870360732078552,0.7804827094078064]},{"name":"Lamp","translation":[4.076245307922363,5.903861999511719,-1.0054539442062378],"rotation":[0.16907575726509094,0.7558802962303162,-0.27217137813568115,0.570947527885437]},{"name":"LeePerrySmith","mesh":0}],"scenes":[{"name":"AuxScene","nodes":[2]},{"name":"Scene","nodes":[1,0]}],"scene":0}