{"asset":{"generator":"glTF-Transform v1.2.3","version":"2.0"},"accessors":[{"type":"VEC3","componentType":5126,"count":5122,"max":[1.2215155363082886,4.84928560256958,1.2215157747268677],"min":[-1.2215156555175781,-1.005294919013977,-1.2215156555175781],"bufferView":0,"byteOffset":0},{"type":"VEC3","componentType":5126,"count":5122,"bufferView":0,"byteOffset":12},{"type":"SCALAR","componentType":5123,"count":9672,"bufferView":1,"byteOffset":0}],"bufferViews":[{"buffer":0,"byteOffset":0,"byteLength":122928,"byteStride":24,"target":34962},{"buffer":0,"byteOffset":122928,"byteLength":19344,"target":34963}],"buffers":[{"uri":"King.bin","byteLength":142272}],"materials":[{"name":"Material","doubleSided":true,"pbrMetallicRoughness":{}}],"meshes":[{"name":"Cylinder.001","primitives":[{"attributes":{"POSITION":0,"NORMAL":1},"mode":4,"material":0,"indices":2}]}],"nodes":[{"name":"Cylinder","translation":[0,0.4347498118877411,0],"scale":[0.41200000047683716,0.41200000047683716,0.41180023550987244],"mesh":0}],"scenes":[{"name":"Scene","nodes":[0]}],"scene":0}