# 3ds Max Wavefront OBJ Exporter v0.97b - (c)2007 guruware
# File Created: 16.04.2021 22:09:23

mtllib car-55.mtl

#
# object car_55
#

v  132.7843 248.0398 -142.5969
v  137.1224 232.0784 -150.2056
v  115.9977 231.3234 -151.1744
v  114.2906 247.8874 -143.2549
v  125.0680 280.4074 -121.3573
v  129.1152 264.4367 -132.9166
v  111.2361 264.4242 -133.5143
v  107.5835 281.5255 -121.0744
v  118.3087 213.8677 -157.7212
v  140.2246 215.4007 -156.5538
v  191.9179 249.4422 -139.4133
v  200.8512 234.8084 -146.4101
v  179.7691 233.4479 -147.9834
v  172.3996 248.9046 -140.5979
v  157.8524 232.6172 -149.2404
v  152.2984 248.4858 -141.6510
v  74.1953 229.9176 -152.7463
v  53.0757 228.9681 -153.4777
v  55.2623 248.1078 -144.4366
v  74.8125 247.8681 -144.2215
v  94.8744 230.7079 -151.9789
v  94.3543 247.9858 -143.7330
v  174.8285 275.5100 -122.9778
v  183.2140 263.5151 -131.2490
v  165.4189 263.8879 -131.8299
v  157.4084 277.5247 -122.2681
v  146.8686 264.3422 -132.3108
v  141.1748 279.1186 -121.7061
v  75.2359 264.6506 -134.3001
v  57.2329 264.7025 -134.6003
v  59.6113 282.8859 -121.1630
v  74.9310 282.8282 -120.8685
v  90.9411 282.3121 -120.9377
v  93.2370 264.5564 -133.9362
v  73.6286 210.3862 -159.8465
v  51.2042 208.7106 -160.7097
v  96.5912 212.2853 -158.7892
v  208.1331 219.5457 -152.1750
v  184.4535 218.1107 -153.9424
v  162.1404 216.5017 -155.4010
# 40 vertices

vn 0.0293 0.4749 -0.8795
vn 0.0298 0.3987 -0.9166
vn 0.0254 0.3936 -0.9189
vn 0.0254 0.4723 -0.8811
vn 0.0273 0.5911 -0.8062
vn 0.0291 0.5523 -0.8332
vn 0.0252 0.5514 -0.8339
vn 0.0233 0.5918 -0.8058
vn 0.0240 0.3552 -0.9345
vn 0.0288 0.3611 -0.9321
vn 0.0389 0.4740 -0.8797
vn 0.0428 0.4023 -0.9145
vn 0.0390 0.4088 -0.9118
vn 0.0374 0.4815 -0.8757
vn 0.0346 0.4031 -0.9145
vn 0.0334 0.4783 -0.8775
vn 0.0165 0.3858 -0.9224
vn 0.0132 0.3782 -0.9256
vn 0.0146 0.4658 -0.8848
vn 0.0172 0.4692 -0.8829
vn 0.0221 0.3902 -0.9205
vn 0.0215 0.4712 -0.8818
vn 0.0368 0.5865 -0.8091
vn 0.0384 0.5414 -0.8399
vn 0.0362 0.5523 -0.8328
vn 0.0334 0.5885 -0.8078
vn 0.0323 0.5530 -0.8325
vn 0.0301 0.5907 -0.8064
vn 0.0175 0.5516 -0.8339
vn 0.0155 0.5485 -0.8360
vn 0.0166 0.5938 -0.8045
vn 0.0167 0.5944 -0.8040
vn 0.0191 0.5930 -0.8050
vn 0.0213 0.5514 -0.8340
vn 0.0146 0.3396 -0.9405
vn 0.0112 0.3353 -0.9421
vn 0.0207 0.3479 -0.9373
vn 0.0466 0.3724 -0.9269
vn 0.0405 0.3722 -0.9273
vn 0.0343 0.3662 -0.9299
# 40 vertex normals

vt 1.0000 1.0000 1.0000
# 1 texture coords

o car_55
g car_55
usemtl 01___Default
s 1
f 1/1/1 2/1/2 3/1/3 
f 3/1/3 4/1/4 1/1/1 
f 5/1/5 6/1/6 7/1/7 
f 7/1/7 8/1/8 5/1/5 
f 6/1/6 1/1/1 4/1/4 
f 4/1/4 7/1/7 6/1/6 
f 9/1/9 3/1/3 2/1/2 
f 2/1/2 10/1/10 9/1/9 
f 11/1/11 12/1/12 13/1/13 
f 13/1/13 14/1/14 11/1/11 
f 14/1/14 13/1/13 15/1/15 
f 15/1/15 16/1/16 14/1/14 
f 16/1/16 15/1/15 2/1/2 
f 2/1/2 1/1/1 16/1/16 
f 17/1/17 18/1/18 19/1/19 
f 19/1/19 20/1/20 17/1/17 
f 21/1/21 17/1/17 20/1/20 
f 20/1/20 22/1/22 21/1/21 
f 21/1/21 22/1/22 4/1/4 
f 4/1/4 3/1/3 21/1/21 
f 23/1/23 24/1/24 25/1/25 
f 25/1/25 26/1/26 23/1/23 
f 26/1/26 25/1/25 27/1/27 
f 27/1/27 28/1/28 26/1/26 
f 28/1/28 27/1/27 6/1/6 
f 6/1/6 5/1/5 28/1/28 
f 29/1/29 30/1/30 31/1/31 
f 31/1/31 32/1/32 29/1/29 
f 29/1/29 32/1/32 33/1/33 
f 33/1/33 34/1/34 29/1/29 
f 34/1/34 33/1/33 8/1/8 
f 8/1/8 7/1/7 34/1/34 
f 24/1/24 11/1/11 14/1/14 
f 14/1/14 25/1/25 24/1/24 
f 25/1/25 14/1/14 16/1/16 
f 16/1/16 27/1/27 25/1/25 
f 27/1/27 16/1/16 1/1/1 
f 1/1/1 6/1/6 27/1/27 
f 20/1/20 19/1/19 30/1/30 
f 30/1/30 29/1/29 20/1/20 
f 20/1/20 29/1/29 34/1/34 
f 34/1/34 22/1/22 20/1/20 
f 22/1/22 34/1/34 7/1/7 
f 7/1/7 4/1/4 22/1/22 
f 35/1/35 36/1/36 18/1/18 
f 18/1/18 17/1/17 35/1/35 
f 37/1/37 35/1/35 17/1/17 
f 17/1/17 21/1/21 37/1/37 
f 37/1/37 21/1/21 3/1/3 
f 3/1/3 9/1/9 37/1/37 
f 12/1/12 38/1/38 39/1/39 
f 39/1/39 13/1/13 12/1/12 
f 13/1/13 39/1/39 40/1/40 
f 40/1/40 15/1/15 13/1/13 
f 15/1/15 40/1/40 10/1/10 
f 10/1/10 2/1/2 15/1/15 
# 56 faces

