# 3ds Max Wavefront OBJ Exporter v0.97b - (c)2007 guruware
# File Created: 21.04.2021 00:28:34

mtllib car-00.mtl

#
# object car_00
#

v  711.5005 4.4168 473.8068
v  711.5005 4.4168 -473.8068
v  -684.7414 4.4168 -473.8068
v  -684.7416 4.4168 473.8068
v  711.5006 0.6644 473.8068
v  711.5006 0.6644 -473.8068
v  -684.7414 0.6644 -473.8068
v  -684.7416 0.6644 473.8068
# 8 vertices

vn 0.0000 1.0000 -0.0000
vn 1.0000 0.0000 -0.0000
vn 0.0000 0.0000 -1.0000
vn -1.0000 0.0000 -0.0000
vn 0.0000 0.0000 1.0000
# 5 vertex normals

vt 1.0000 1.0000 0.0000
vt 0.0000 1.0000 0.0000
vt 0.0000 0.0000 0.0000
vt 1.0000 0.0000 0.0000
# 4 texture coords

o car_00
g car_00
usemtl 01___Default
s 1
f 1/1/1 2/2/1 3/3/1 
f 3/3/1 4/4/1 1/1/1 
s 2
f 2/2/2 1/1/2 5/1/2 
f 5/1/2 6/2/2 2/2/2 
s 4
f 3/3/3 2/2/3 6/2/3 
f 6/2/3 7/3/3 3/3/3 
s 2
f 4/4/4 3/3/4 7/3/4 
f 7/3/4 8/4/4 4/4/4 
s 4
f 1/1/5 4/4/5 8/4/5 
f 8/4/5 5/1/5 1/1/5 
# 10 faces

