# 3ds Max Wavefront OBJ Exporter v0.97b - (c)2007 guruware
# File Created: 19.04.2021 14:06:14

mtllib car-09.mtl

#
# object car_09
#

v  436.8481 212.7434 112.0238
v  439.7937 199.9628 114.9876
v  443.0453 200.0869 110.1786
v  439.9076 212.9652 107.3733
v  445.1103 200.1975 106.7404
v  442.7468 213.1698 102.5911
v  456.1758 214.3487 -0.0000
v  456.2133 214.1184 19.7928
v  460.3793 201.1215 13.9996
v  460.4994 201.1294 -0.0000
v  455.5556 214.0752 33.7323
v  460.1101 201.0900 20.7753
v  454.4247 213.9981 48.9515
v  459.3638 201.0427 35.9757
v  453.0816 213.8976 62.3607
v  458.2840 201.0602 50.8767
v  451.6623 213.8011 72.6993
v  457.0284 200.9354 62.6904
v  450.3118 213.7023 80.8874
v  455.8047 200.8388 71.6929
v  448.9281 213.6097 87.0303
v  454.5871 200.7869 79.3425
v  446.9532 213.4720 93.4484
v  453.5287 200.7038 84.6970
v  445.0875 213.3403 97.9431
v  452.2603 200.6602 89.9925
v  450.6935 200.5236 94.8700
v  449.1565 200.4114 98.7381
v  446.8781 200.3038 103.5269
v  430.1692 199.4372 126.4434
v  431.4471 199.4251 126.3871
v  424.9088 211.9017 127.0308
v  423.8744 211.8615 127.1206
v  424.8667 208.5224 126.9884
v  425.5960 205.3898 126.8687
v  426.0855 202.5876 126.7532
v  426.3044 200.8353 126.7081
v  426.4640 199.4382 126.6316
v  428.5015 199.4325 126.5271
v  435.4961 199.6522 121.2038
v  434.1328 212.5577 115.6904
v  430.3766 212.2915 120.5357
v  427.3462 212.0746 124.2236
v  431.3141 193.8910 120.2218
v  427.1776 193.6919 126.3128
v  428.2210 191.1911 126.0647
v  429.9095 191.3489 123.5827
v  431.6604 191.8288 120.8150
v  432.8154 192.6502 118.5761
v  433.6350 193.3089 116.9511
v  433.4093 193.9291 116.9186
v  426.7138 192.0405 126.3781
v  426.7878 191.3563 126.3194
v  426.7414 193.5566 126.4028
v  433.6842 193.6967 116.4934
v  443.0453 200.0869 -110.1786
v  439.7937 199.9628 -114.9876
v  436.8481 212.7434 -112.0238
v  439.9076 212.9652 -107.3733
v  445.1103 200.1975 -106.7404
v  442.7468 213.1698 -102.5911
v  460.3793 201.1215 -13.9996
v  456.2133 214.1184 -19.7928
v  460.1101 201.0900 -20.7753
v  455.5556 214.0752 -33.7323
v  459.3638 201.0427 -35.9757
v  454.4247 213.9981 -48.9515
v  458.2840 201.0602 -50.8767
v  453.0816 213.8976 -62.3607
v  457.0284 200.9354 -62.6904
v  451.6623 213.8011 -72.6993
v  455.8047 200.8388 -71.6929
v  450.3118 213.7023 -80.8874
v  454.5871 200.7869 -79.3425
v  448.9281 213.6097 -87.0303
v  453.5287 200.7038 -84.6970
v  446.9532 213.4720 -93.4484
v  452.2603 200.6602 -89.9925
v  445.0875 213.3403 -97.9431
v  450.6935 200.5236 -94.8700
v  449.1565 200.4114 -98.7381
v  446.8781 200.3038 -103.5269
v  430.1692 199.4372 -126.4434
v  428.5015 199.4325 -126.5271
v  426.4640 199.4382 -126.6316
v  426.3044 200.8353 -126.7081
v  426.0855 202.5876 -126.7532
v  424.8667 208.5224 -126.9884
v  423.8744 211.8615 -127.1206
v  424.9088 211.9017 -127.0308
v  425.5960 205.3898 -126.8687
v  431.4471 199.4251 -126.3871
v  435.4961 199.6522 -121.2038
v  430.3766 212.2915 -120.5357
v  434.1328 212.5577 -115.6904
v  427.3462 212.0746 -124.2236
v  428.2210 191.1911 -126.0647
v  427.1776 193.6919 -126.3128
v  431.3141 193.8910 -120.2218
v  431.6604 191.8288 -120.8150
v  429.9095 191.3489 -123.5827
v  433.4093 193.9291 -116.9186
v  433.6350 193.3089 -116.9511
v  432.8154 192.6502 -118.5761
v  426.7878 191.3563 -126.3194
v  426.7138 192.0405 -126.3781
v  426.7414 193.5566 -126.4028
v  433.6842 193.6967 -116.4934
# 108 vertices

vn 0.7746 0.3128 0.5496
vn 0.7801 0.3063 0.5455
vn 0.7984 0.3064 0.5184
vn 0.8011 0.3073 0.5136
vn 0.8205 0.3040 0.4841
vn 0.8378 0.2970 0.4582
vn 0.9515 0.3077 0.0000
vn 0.9550 0.2951 0.0285
vn 0.9536 0.3004 0.0173
vn 0.9505 0.3109 -0.0000
vn 0.9553 0.2898 0.0585
vn 0.9564 0.2888 0.0433
vn 0.9518 0.2952 0.0829
vn 0.9550 0.2905 0.0603
vn 0.9488 0.2935 0.1166
vn 0.9517 0.2948 0.0860
vn 0.9455 0.2906 0.1467
vn 0.9490 0.2922 0.1182
vn 0.9391 0.2871 0.1888
vn 0.9456 0.2925 0.1425
vn 0.9255 0.2805 0.2544
vn 0.9400 0.2945 0.1723
vn 0.9010 0.2746 0.3357
vn 0.9291 0.3028 0.2123
vn 0.8708 0.2734 0.4087
vn 0.9121 0.3169 0.2601
vn 0.8882 0.3200 0.3297
vn 0.8679 0.3218 0.3784
vn 0.8451 0.3034 0.4403
vn 0.0461 -0.0276 0.9986
vn 0.0437 -0.0286 0.9986
vn 0.0839 -0.0154 0.9964
vn 0.0870 -0.0136 0.9961
vn 0.1025 -0.0138 0.9946
vn 0.2249 -0.0005 0.9744
vn 0.0688 -0.0204 0.9974
vn 0.0657 -0.0258 0.9975
vn 0.0510 -0.0488 0.9975
vn 0.0545 -0.0285 0.9981
vn 0.7509 0.3221 0.5766
vn 0.7462 0.3266 0.5801
vn 0.7295 0.3326 0.5977
vn 0.7284 0.3318 0.5994
vn 0.7093 0.3359 0.6197
vn 0.7012 0.3350 0.6294
vn 0.7969 0.2867 0.5318
vn 0.7910 0.2758 0.5462
vn 0.7893 0.2798 0.5466
vn 0.7693 0.3340 0.5446
vn 0.7919 0.2886 0.5382
vn 0.8043 0.2927 0.5172
vn 0.8176 0.3225 0.4771
vn 0.8242 0.3179 0.4686
vn 0.1849 -0.0342 0.9822
vn 0.1672 -0.0663 0.9837
vn 0.1854 -0.0357 0.9820
vn 0.2054 -0.0114 0.9786
vn 0.2016 -0.0139 0.9794
vn 0.8642 0.3342 0.3761
vn 0.7984 0.3064 -0.5184
vn 0.7801 0.3063 -0.5455
vn 0.7746 0.3128 -0.5496
vn 0.8011 0.3073 -0.5136
vn 0.8205 0.3040 -0.4841
vn 0.8378 0.2970 -0.4582
vn 0.9536 0.3004 -0.0173
vn 0.9550 0.2951 -0.0285
vn 0.9564 0.2888 -0.0433
vn 0.9553 0.2898 -0.0585
vn 0.9550 0.2905 -0.0603
vn 0.9518 0.2952 -0.0829
vn 0.9517 0.2948 -0.0860
vn 0.9488 0.2935 -0.1166
vn 0.9490 0.2922 -0.1182
vn 0.9455 0.2906 -0.1467
vn 0.9456 0.2925 -0.1425
vn 0.9391 0.2871 -0.1888
vn 0.9400 0.2945 -0.1723
vn 0.9255 0.2805 -0.2544
vn 0.9291 0.3028 -0.2123
vn 0.9010 0.2746 -0.3357
vn 0.9121 0.3169 -0.2601
vn 0.8708 0.2734 -0.4087
vn 0.8882 0.3200 -0.3297
vn 0.8679 0.3218 -0.3784
vn 0.8451 0.3034 -0.4403
vn 0.0487 -0.0289 -0.9984
vn 0.0497 -0.1915 -0.9802
vn 0.0507 -0.0491 -0.9975
vn 0.0579 -0.0288 -0.9979
vn 0.0619 -0.0209 -0.9979
vn 0.1025 -0.0138 -0.9946
vn 0.0870 -0.0136 -0.9961
vn 0.0838 -0.0153 -0.9964
vn 0.2249 -0.0005 -0.9744
vn 0.0437 -0.0286 -0.9986
vn 0.7509 0.3221 -0.5766
vn 0.7295 0.3326 -0.5977
vn 0.7462 0.3266 -0.5801
vn 0.7284 0.3318 -0.5994
vn 0.7012 0.3350 -0.6294
vn 0.7093 0.3359 -0.6197
vn 0.7893 0.2798 -0.5466
vn 0.7910 0.2758 -0.5462
vn 0.7969 0.2867 -0.5318
vn 0.7919 0.2886 -0.5382
vn 0.7693 0.3340 -0.5446
vn 0.8242 0.3179 -0.4686
vn 0.8176 0.3225 -0.4771
vn 0.8043 0.2927 -0.5172
vn 0.1854 -0.0357 -0.9820
vn 0.1672 -0.0663 -0.9837
vn 0.1849 -0.0342 -0.9822
vn 0.2016 -0.0139 -0.9794
vn 0.2054 -0.0114 -0.9786
vn 0.8642 0.3342 -0.3761
# 116 vertex normals

vt 0.0886 0.3154 0.0000
vt 0.0773 0.2686 0.0000
vt 0.0979 0.2653 0.0000
vt 0.1084 0.3127 0.0000
vt 0.1122 0.2634 0.0000
vt 0.1282 0.3103 0.0000
vt 0.5017 0.3004 0.0000
vt 0.4308 0.2996 0.0000
vt 0.4515 0.2507 0.0000
vt 0.5017 0.2506 0.0000
vt 0.3808 0.3001 0.0000
vt 0.4272 0.2508 0.0000
vt 0.3261 0.3010 0.0000
vt 0.3727 0.2514 0.0000
vt 0.2778 0.3021 0.0000
vt 0.3192 0.2526 0.0000
vt 0.2404 0.3032 0.0000
vt 0.2766 0.2535 0.0000
vt 0.2107 0.3043 0.0000
vt 0.2441 0.2544 0.0000
vt 0.1882 0.3054 0.0000
vt 0.2163 0.2555 0.0000
vt 0.1641 0.3070 0.0000
vt 0.1968 0.2563 0.0000
vt 0.1468 0.3084 0.0000
vt 0.1773 0.2574 0.0000
vt 0.1590 0.2585 0.0000
vt 0.1441 0.2597 0.0000
vt 0.1252 0.2618 0.0000
vt 0.0230 0.2778 0.0000
vt 0.0272 0.2762 0.0000
vt 0.0207 0.3263 0.0000
vt 0.0171 0.3274 0.0000
vt 0.0163 0.3150 0.0000
vt 0.0149 0.3035 0.0000
vt 0.0131 0.2935 0.0000
vt 0.0117 0.2873 0.0000
vt 0.0105 0.2824 0.0000
vt 0.0173 0.2799 0.0000
vt 0.0505 0.2723 0.0000
vt 0.0724 0.3179 0.0000
vt 0.0507 0.3212 0.0000
vt 0.0338 0.3240 0.0000
vt 0.7976 0.2051 0.0000
vt 0.7640 0.2031 0.0000
vt 0.7680 0.1913 0.0000
vt 0.7817 0.1925 0.0000
vt 0.7965 0.1952 0.0000
vt 0.8078 0.1995 0.0000
vt 0.8160 0.2030 0.0000
vt 0.8154 0.2060 0.0000
vt 0.7612 0.1957 0.0000
vt 0.7614 0.1926 0.0000
vt 0.7619 0.2026 0.0000
vt 0.8178 0.2051 0.0000
vt 0.9055 0.2655 0.0000
vt 0.9261 0.2687 0.0000
vt 0.9148 0.3155 0.0000
vt 0.8950 0.3129 0.0000
vt 0.8913 0.2635 0.0000
vt 0.8752 0.3104 0.0000
vt 0.5519 0.2507 0.0000
vt 0.5726 0.2996 0.0000
vt 0.5762 0.2509 0.0000
vt 0.6226 0.3002 0.0000
vt 0.6307 0.2515 0.0000
vt 0.6773 0.3011 0.0000
vt 0.6842 0.2527 0.0000
vt 0.7256 0.3021 0.0000
vt 0.7268 0.2536 0.0000
vt 0.7630 0.3033 0.0000
vt 0.7594 0.2545 0.0000
vt 0.7927 0.3044 0.0000
vt 0.7871 0.2556 0.0000
vt 0.8152 0.3055 0.0000
vt 0.8066 0.2564 0.0000
vt 0.8393 0.3071 0.0000
vt 0.8261 0.2575 0.0000
vt 0.8566 0.3085 0.0000
vt 0.8445 0.2586 0.0000
vt 0.8593 0.2598 0.0000
vt 0.8782 0.2620 0.0000
vt 0.9805 0.2780 0.0000
vt 0.9861 0.2800 0.0000
vt 0.9929 0.2826 0.0000
vt 0.9917 0.2875 0.0000
vt 0.9903 0.2937 0.0000
vt 0.9871 0.3151 0.0000
vt 0.9863 0.3276 0.0000
vt 0.9827 0.3264 0.0000
vt 0.9885 0.3037 0.0000
vt 0.9762 0.2763 0.0000
vt 0.9529 0.2725 0.0000
vt 0.9527 0.3214 0.0000
vt 0.9310 0.3180 0.0000
vt 0.9696 0.3242 0.0000
vt 0.8028 0.2145 0.0000
vt 0.8068 0.2263 0.0000
vt 0.7732 0.2284 0.0000
vt 0.7742 0.2185 0.0000
vt 0.7891 0.2157 0.0000
vt 0.7554 0.2294 0.0000
vt 0.7548 0.2264 0.0000
vt 0.7630 0.2230 0.0000
vt 0.8093 0.2158 0.0000
vt 0.8095 0.2189 0.0000
vt 0.8089 0.2258 0.0000
vt 0.7530 0.2285 0.0000
# 108 texture coords

o car_09
g car_09
usemtl 01___Default
s 4
f 1/1/1 2/2/2 3/3/3 
f 3/3/3 4/4/4 1/1/1 
f 4/4/4 3/3/3 5/5/5 
f 5/5/5 6/6/6 4/4/4 
f 7/7/7 8/8/8 9/9/9 
f 9/9/9 10/10/10 7/7/7 
f 8/8/8 11/11/11 12/12/12 
f 12/12/12 9/9/9 8/8/8 
f 11/11/11 13/13/13 14/14/14 
f 14/14/14 12/12/12 11/11/11 
f 13/13/13 15/15/15 16/16/16 
f 16/16/16 14/14/14 13/13/13 
f 15/15/15 17/17/17 18/18/18 
f 18/18/18 16/16/16 15/15/15 
f 17/17/17 19/19/19 20/20/20 
f 20/20/20 18/18/18 17/17/17 
f 19/19/19 21/21/21 22/22/22 
f 22/22/22 20/20/20 19/19/19 
f 21/21/21 23/23/23 24/24/24 
f 24/24/24 22/22/22 21/21/21 
f 23/23/23 25/25/25 26/26/26 
f 26/26/26 24/24/24 23/23/23 
f 25/25/25 6/6/6 27/27/27 
f 27/27/27 26/26/26 25/25/25 
f 28/28/28 27/27/27 6/6/6 
f 29/29/29 28/28/28 6/6/6 
f 5/5/5 29/29/29 6/6/6 
s 8
f 30/30/30 31/31/31 32/32/32 
f 32/32/32 33/33/33 34/34/34 
f 32/32/32 34/34/34 35/35/35 
f 32/32/32 35/35/35 36/36/36 
f 37/37/37 38/38/38 39/39/39 
f 36/36/36 37/37/37 39/39/39 
f 32/32/32 36/36/36 39/39/39 
f 30/30/30 32/32/32 39/39/39 
s 4
f 40/40/40 2/2/2 1/1/1 
f 40/40/40 1/1/1 41/41/41 
f 40/40/40 41/41/41 42/42/42 
f 31/31/43 43/43/44 32/32/45 
f 42/42/42 43/43/44 31/31/43 
f 31/31/43 40/40/40 42/42/42 
f 44/44/46 45/45/47 46/46/48 
f 46/46/48 47/47/49 48/48/50 
f 44/44/46 46/46/48 48/48/50 
f 49/49/51 50/50/52 51/51/53 
f 49/49/51 51/51/53 44/44/46 
f 49/49/51 44/44/46 48/48/50 
s 8
f 52/52/54 53/53/55 46/46/56 
f 46/46/56 45/45/57 54/54/58 
f 52/52/54 46/46/56 54/54/58 
s 4
f 50/50/52 55/55/59 51/51/53 
f 56/56/60 57/57/61 58/58/62 
f 58/58/62 59/59/63 56/56/60 
f 60/60/64 56/56/60 59/59/63 
f 59/59/63 61/61/65 60/60/64 
f 7/7/7 10/10/10 62/62/66 
f 62/62/66 63/63/67 7/7/7 
f 63/63/67 62/62/66 64/64/68 
f 64/64/68 65/65/69 63/63/67 
f 65/65/69 64/64/68 66/66/70 
f 66/66/70 67/67/71 65/65/69 
f 67/67/71 66/66/70 68/68/72 
f 68/68/72 69/69/73 67/67/71 
f 69/69/73 68/68/72 70/70/74 
f 70/70/74 71/71/75 69/69/73 
f 71/71/75 70/70/74 72/72/76 
f 72/72/76 73/73/77 71/71/75 
f 73/73/77 72/72/76 74/74/78 
f 74/74/78 75/75/79 73/73/77 
f 75/75/79 74/74/78 76/76/80 
f 76/76/80 77/77/81 75/75/79 
f 77/77/81 76/76/80 78/78/82 
f 78/78/82 79/79/83 77/77/81 
f 79/79/83 78/78/82 80/80/84 
f 80/80/84 61/61/65 79/79/83 
f 81/81/85 61/61/65 80/80/84 
f 82/82/86 61/61/65 81/81/85 
f 60/60/64 61/61/65 82/82/86 
s 8
f 83/83/87 84/84/88 85/85/89 
f 83/83/87 85/85/89 86/86/90 
f 83/83/87 86/86/90 87/87/91 
f 88/88/92 89/89/93 90/90/94 
f 91/91/95 88/88/92 90/90/94 
f 87/87/91 91/91/95 90/90/94 
f 83/83/87 87/87/91 90/90/94 
f 83/83/87 90/90/94 92/92/96 
s 4
f 93/93/97 94/94/98 95/95/99 
f 93/93/97 95/95/99 58/58/62 
f 93/93/97 58/58/62 57/57/61 
f 92/92/100 90/90/101 96/96/102 
f 94/94/98 93/93/97 92/92/100 
f 92/92/100 96/96/102 94/94/98 
f 97/97/103 98/98/104 99/99/105 
f 97/97/103 99/99/105 100/100/106 
f 97/97/103 100/100/106 101/101/107 
f 102/102/108 103/103/109 104/104/110 
f 104/104/110 100/100/106 99/99/105 
f 102/102/108 104/104/110 99/99/105 
s 8
f 97/97/111 105/105/112 106/106/113 
f 97/97/111 106/106/113 107/107/114 
f 97/97/111 107/107/114 98/98/115 
s 4
f 103/103/109 102/102/108 108/108/116 
# 102 faces

