# 3ds Max Wavefront OBJ Exporter v0.97b - (c)2007 guruware
# File Created: 16.04.2021 22:10:52

mtllib car-12.mtl

#
# object car_12
#

v  -134.2511 222.6795 -183.0110
v  -136.9129 221.8857 -176.9745
v  -136.6043 217.3502 -177.5360
v  -134.1231 218.2245 -183.1585
v  -131.7580 219.0305 -188.9133
v  -131.8974 223.4754 -188.7695
v  -129.4714 219.9408 -194.9300
v  -129.6205 224.3771 -194.7893
v  -127.2274 220.7032 -201.3858
v  -127.3597 224.8672 -201.2907
v  -125.1666 223.4498 -208.0764
v  -125.1168 223.0691 -208.2096
v  -131.5973 213.7303 -189.3811
v  -129.3206 214.6474 -195.3537
v  -131.7561 208.9407 -189.2909
v  -129.4456 209.5691 -195.3204
v  -134.0874 212.9808 -183.3360
v  -134.1627 208.6369 -183.4550
v  -136.2641 212.1611 -178.4182
v  -135.1987 208.7737 -181.0455
v  -136.1366 210.8683 -178.7765
v  -135.9915 209.9437 -179.1639
v  -135.6761 209.1761 -179.9305
v  -127.2809 215.5813 -201.1683
v  -127.9937 210.2814 -199.3610
v  -127.4178 210.8497 -201.0123
v  -125.2296 217.5703 -207.5878
v  -125.1167 221.1227 -208.0742
v  -125.8466 225.1042 -206.0896
v  -125.8953 214.9116 -205.4696
v  -126.9091 211.7469 -202.4726
v  -129.9120 227.9285 -194.3813
v  -127.6807 228.2625 -200.7554
v  -126.7123 226.8013 -203.4890
v  -132.1820 227.9560 -188.4886
v  -134.5319 227.6400 -182.7833
v  -136.9207 224.5176 -177.1143
v  -136.9871 223.2381 -176.8850
v  -132.6027 232.2838 -188.0521
v  -131.2768 231.6515 -191.3143
v  -130.1875 230.8873 -194.0727
v  -128.9442 229.7480 -197.3201
v  -133.7251 232.5927 -185.3654
v  -134.8509 232.6410 -182.7143
v  -135.9132 231.7767 -180.1506
v  -136.1857 230.3607 -179.3384
v  -135.4796 232.4485 -181.2364
v  -136.6021 227.2597 -178.0522
# 48 vertices

vn 0.9192 0.0233 0.3931
vn 0.9140 0.0177 0.4054
vn 0.9148 0.0021 0.4038
vn 0.9198 0.0031 0.3924
vn 0.9296 0.0060 0.3685
vn 0.9289 0.0267 0.3694
vn 0.9391 0.0101 0.3434
vn 0.9386 0.0295 0.3437
vn 0.9486 0.0138 0.3162
vn 0.9476 0.0295 0.3180
vn 0.9531 0.0219 0.3019
vn 0.9532 0.0200 0.3018
vn 0.9303 -0.0144 0.3664
vn 0.9393 -0.0103 0.3428
vn 0.9295 -0.0232 0.3680
vn 0.9379 -0.0208 0.3464
vn 0.9206 -0.0161 0.3902
vn 0.9216 -0.0260 0.3874
vn 0.9153 -0.0142 0.4025
vn 0.9166 -0.0249 0.3990
vn 0.9158 -0.0226 0.4011
vn 0.9159 -0.0239 0.4006
vn 0.9159 -0.0238 0.4007
vn 0.9478 -0.0052 0.3187
vn 0.9443 -0.0147 0.3287
vn 0.9457 -0.0152 0.3247
vn 0.9528 0.0074 0.3036
vn 0.9532 0.0166 0.3019
vn 0.9529 0.0280 0.3019
vn 0.9518 -0.0002 0.3066
vn 0.9489 -0.0153 0.3152
vn 0.9371 0.0419 0.3467
vn 0.9444 0.0374 0.3267
vn 0.9513 0.0301 0.3066
vn 0.9275 0.0427 0.3713
vn 0.9187 0.0419 0.3928
vn 0.9141 0.0289 0.4045
vn 0.9136 0.0243 0.4058
vn 0.9257 0.0522 0.3747
vn 0.9313 0.0493 0.3610
vn 0.9354 0.0506 0.3499
vn 0.9416 0.0393 0.3344
vn 0.9217 0.0513 0.3844
vn 0.9180 0.0531 0.3931
vn 0.9158 0.0524 0.3982
vn 0.9149 0.0488 0.4007
vn 0.9161 0.0527 0.3975
vn 0.9145 0.0361 0.4030
# 48 vertex normals

vt 1.0000 1.0000 1.0000
# 1 texture coords

o car_12
g car_12
usemtl 01___Default
s 2
f 1/1/1 2/1/2 3/1/3 
f 3/1/3 4/1/4 1/1/1 
f 5/1/5 6/1/6 1/1/1 
f 1/1/1 4/1/4 5/1/5 
f 7/1/7 8/1/8 6/1/6 
f 6/1/6 5/1/5 7/1/7 
f 9/1/9 10/1/10 8/1/8 
f 8/1/8 7/1/7 9/1/9 
f 11/1/11 9/1/9 12/1/12 
f 13/1/13 14/1/14 7/1/7 
f 7/1/7 5/1/5 13/1/13 
f 15/1/15 16/1/16 14/1/14 
f 14/1/14 13/1/13 15/1/15 
f 5/1/5 4/1/4 17/1/17 
f 17/1/17 13/1/13 5/1/5 
f 18/1/18 15/1/15 13/1/13 
f 13/1/13 17/1/17 18/1/18 
f 19/1/19 17/1/17 4/1/4 
f 4/1/4 3/1/3 19/1/19 
f 17/1/17 20/1/20 18/1/18 
f 21/1/21 17/1/17 19/1/19 
f 17/1/17 22/1/22 23/1/23 
f 22/1/22 17/1/17 21/1/21 
f 17/1/17 23/1/23 20/1/20 
f 24/1/24 9/1/9 7/1/7 
f 7/1/7 14/1/14 24/1/24 
f 14/1/14 25/1/25 26/1/26 
f 26/1/26 24/1/24 14/1/14 
f 25/1/25 14/1/14 16/1/16 
f 27/1/27 28/1/28 9/1/9 
f 9/1/9 24/1/24 27/1/27 
f 12/1/12 9/1/9 28/1/28 
f 10/1/10 9/1/9 11/1/11 
f 11/1/11 29/1/29 10/1/10 
f 24/1/24 30/1/30 27/1/27 
f 31/1/31 24/1/24 26/1/26 
f 24/1/24 31/1/31 30/1/30 
f 32/1/32 8/1/8 10/1/10 
f 10/1/10 33/1/33 32/1/32 
f 34/1/34 33/1/33 10/1/10 
f 34/1/34 10/1/10 29/1/29 
f 35/1/35 6/1/6 8/1/8 
f 8/1/8 32/1/32 35/1/35 
f 36/1/36 1/1/1 6/1/6 
f 6/1/6 35/1/35 36/1/36 
f 1/1/1 37/1/37 38/1/38 
f 39/1/39 35/1/35 40/1/40 
f 40/1/40 35/1/35 32/1/32 
f 32/1/32 41/1/41 40/1/40 
f 42/1/42 41/1/41 32/1/32 
f 42/1/42 32/1/32 33/1/33 
f 36/1/36 43/1/43 44/1/44 
f 43/1/43 36/1/36 35/1/35 
f 35/1/35 39/1/39 43/1/43 
f 45/1/45 46/1/46 36/1/36 
f 36/1/36 47/1/47 45/1/45 
f 47/1/47 36/1/36 44/1/44 
f 36/1/36 46/1/46 48/1/48 
f 37/1/37 1/1/1 36/1/36 
f 36/1/36 48/1/48 37/1/37 
f 1/1/1 38/1/38 2/1/2 
# 61 faces

