# 3ds Max Wavefront OBJ Exporter v0.97b - (c)2007 guruware
# File Created: 19.04.2021 14:10:58

mtllib car-48.mtl

#
# object car_48
#

v  32.7244 214.7906 160.5065
v  24.3367 214.5688 160.5250
v  24.2057 214.2338 161.8507
v  32.6063 214.4547 161.6167
v  32.5487 214.2683 161.9566
v  24.1375 214.0329 162.1776
v  32.4536 213.9824 162.2409
v  24.0411 213.7299 162.4438
v  31.7941 211.5680 163.4179
v  23.3711 211.2711 163.5994
v  12.5329 213.3443 162.6348
v  11.8628 210.8766 163.7735
v  12.6293 213.6510 162.3696
v  12.6973 213.8571 162.0424
v  12.8280 214.2048 160.7184
v  -6.0121 212.7318 162.8724
v  -6.6822 210.2502 163.9828
v  -5.9158 213.0440 162.6100
v  -5.8481 213.2576 162.2825
v  -5.7178 213.6205 160.9598
v  -27.6748 212.0911 163.0046
v  -28.3450 209.6229 164.1423
v  -27.5783 212.3958 162.7381
v  -27.5102 212.5955 162.4092
v  -27.3785 212.9092 161.0776
v  -54.5481 211.2120 163.0885
v  -55.2178 208.7101 164.1588
v  -54.4521 211.5328 162.8286
v  -54.3847 211.7525 162.4968
v  -54.2545 212.1156 161.1696
v  -81.6671 210.4592 162.9240
v  -82.3375 207.9806 164.0430
v  -81.5707 210.7667 162.6564
v  -81.5027 210.9660 162.3241
v  -81.3701 211.2487 160.9835
v  -119.3545 209.4233 162.4481
v  -120.0247 206.9426 163.5631
v  -119.2581 209.7303 162.1791
v  -119.1900 209.9279 161.8457
v  -118.9291 210.2950 160.7150
v  -141.3654 209.0945 161.9084
v  -142.0367 206.6350 163.0662
v  -141.2681 209.3757 161.6220
v  -141.1994 209.5499 161.2917
v  -140.9374 209.8760 160.1589
v  -161.8852 208.9312 161.2563
v  -162.5568 206.4771 162.4208
v  -161.7876 209.2016 160.9666
v  -161.7189 209.3686 160.6395
v  -161.4565 209.6744 159.5037
v  -178.1304 208.8637 160.5772
v  -178.8010 206.3943 161.7139
v  -178.0333 209.1519 160.2964
v  -177.9646 209.3321 159.9670
v  -177.7024 209.6584 158.8327
v  -181.2362 208.8685 160.2684
v  -184.5737 206.4816 161.2892
v  -180.6070 209.1396 160.1242
v  -180.0277 209.3071 159.7666
v  32.6063 213.5669 160.9368
v  32.7244 213.9027 159.8267
v  24.3367 213.6810 159.8452
v  32.5487 213.3805 161.2768
v  32.4536 213.0946 161.5611
v  23.3711 210.3833 162.9196
v  31.7941 210.6802 162.7380
v  11.8628 209.9888 163.0936
v  12.8280 213.3170 160.0386
v  -6.6822 209.3623 163.3029
v  -5.7178 212.7327 160.2800
v  -28.3450 208.7350 163.4625
v  -27.3785 212.0214 160.3978
v  -55.2178 207.8222 163.4789
v  -54.2545 211.2277 160.4898
v  -82.3375 207.0928 163.3632
v  -81.3701 210.3609 160.3037
v  -120.0247 206.0548 162.8833
v  -118.9291 209.4071 160.0352
v  -142.0367 205.7471 162.3864
v  -140.9374 208.9881 159.4791
v  -162.5568 205.5892 161.7410
v  -161.4565 208.7865 158.8239
v  -178.8010 205.5064 161.0341
v  -177.7024 208.7705 158.1528
v  -181.2362 207.9806 159.5885
v  -184.5737 205.5937 160.6094
v  -180.6070 208.2518 159.4444
v  -180.0277 208.4193 159.0868
v  -159.9922 75.2730 182.3727
v  -168.7351 75.1158 182.2537
v  -170.7239 74.2963 182.0701
v  -160.1178 74.4785 182.2129
v  -145.5813 75.7303 182.5352
v  -145.6542 74.9171 182.3979
v  -129.5102 76.1941 182.7021
v  -129.5351 75.4571 182.6093
v  -110.8275 76.7109 182.8876
v  -110.8424 75.8578 182.7835
v  -92.1167 76.4647 183.0051
v  -92.1104 77.2442 183.0659
v  -72.4600 77.6478 183.2467
v  -72.5089 76.8848 183.1724
v  -45.1355 77.4902 183.3933
v  -45.1952 78.2226 183.4823
v  -14.3561 78.2687 183.6466
v  -14.2023 78.9772 183.7220
v  22.8033 79.0713 183.7813
v  22.7687 79.8685 183.9185
v  -72.6476 79.8529 182.8891
v  -45.1266 80.7906 183.1400
v  -72.5360 74.3031 182.0182
v  -44.8673 74.8250 182.1663
v  -92.0135 73.8944 181.8664
v  -92.0732 79.1509 182.7293
v  -110.7632 78.3646 182.7018
v  -129.5662 77.6938 182.4929
v  -145.6090 77.1107 182.2919
v  -159.8841 76.5493 182.1485
v  -164.6176 76.2924 182.1440
v  -166.7682 75.7793 182.2393
v  -160.3107 72.5669 181.3731
v  -145.6263 72.8356 181.4436
v  -129.3961 73.1266 181.5468
v  -110.4700 73.4614 181.6459
v  -170.5462 72.3761 181.3513
v  -172.5544 72.3785 181.3747
v  -172.8116 73.2992 181.6781
v  -172.9787 72.5813 181.4645
v  -173.1001 72.9595 181.5604
v  -13.9300 75.4695 182.3516
v  -13.9795 81.7805 183.4262
v  22.8934 83.0573 183.4829
v  23.0891 76.3342 182.5458
v  -168.7351 75.1158 181.0129
v  -170.7239 74.2963 180.8293
v  22.8033 79.0713 182.5405
v  22.7687 79.8685 182.6777
v  -45.1266 80.7906 181.8992
v  -72.6476 79.8529 181.6483
v  -72.5360 74.3031 180.7773
v  -44.8673 74.8250 180.9255
v  -92.0135 73.8944 180.6255
v  -92.0732 79.1509 181.4885
v  -110.7632 78.3646 181.4610
v  -129.5662 77.6938 181.2521
v  -145.6090 77.1107 181.0511
v  -159.8841 76.5493 180.9077
v  -164.6176 76.2924 180.9032
v  -166.7682 75.7793 180.9985
v  -160.3107 72.5669 180.1323
v  -145.6263 72.8356 180.2028
v  -129.3961 73.1266 180.3060
v  -110.4700 73.4614 180.4051
v  -170.5462 72.3761 180.1104
v  -172.5544 72.3785 180.1339
v  -172.8116 73.2992 180.4373
v  -173.1001 72.9595 180.3196
v  -172.9787 72.5813 180.2237
v  -13.9300 75.4695 181.1107
v  -13.9795 81.7805 182.1854
v  23.0466 83.0562 181.9038
v  23.1580 76.2209 180.7624
# 162 vertices

vn -0.0180 0.9590 0.2829
vn -0.0258 0.9698 0.2426
vn -0.0201 0.9217 0.3874
vn -0.0139 0.9266 0.3757
vn -0.0061 0.8120 0.5837
vn -0.0102 0.7659 0.6429
vn 0.0029 0.6016 0.7988
vn -0.0014 0.5489 0.8359
vn 0.0079 0.4341 0.9008
vn 0.0022 0.4244 0.9055
vn -0.0060 0.5431 0.8397
vn -0.0016 0.4189 0.9081
vn -0.0154 0.7601 0.6496
vn -0.0239 0.9182 0.3953
vn -0.0273 0.9676 0.2511
vn -0.0092 0.5329 0.8461
vn -0.0053 0.4100 0.9121
vn -0.0174 0.7506 0.6605
vn -0.0255 0.9130 0.4072
vn -0.0289 0.9647 0.2616
vn -0.0126 0.5462 0.8375
vn -0.0087 0.4197 0.9076
vn -0.0205 0.7679 0.6403
vn -0.0263 0.9263 0.3759
vn -0.0283 0.9734 0.2273
vn -0.0178 0.5199 0.8541
vn -0.0150 0.3973 0.9176
vn -0.0236 0.7429 0.6690
vn -0.0290 0.9118 0.4096
vn -0.0309 0.9650 0.2603
vn -0.0223 0.5436 0.8390
vn -0.0196 0.4158 0.9092
vn -0.0273 0.7694 0.6382
vn -0.0287 0.9315 0.3626
vn -0.0281 0.9785 0.2045
vn -0.0273 0.5453 0.8378
vn -0.0261 0.4163 0.9088
vn -0.0289 0.7723 0.6347
vn -0.0285 0.9131 0.4068
vn -0.0282 0.9530 0.3016
vn -0.0289 0.5835 0.8116
vn -0.0296 0.4325 0.9012
vn -0.0263 0.8102 0.5856
vn -0.0225 0.9290 0.3694
vn -0.0211 0.9619 0.2726
vn -0.0325 0.5957 0.8025
vn -0.0362 0.4359 0.8993
vn -0.0252 0.8213 0.5700
vn -0.0177 0.9341 0.3566
vn -0.0145 0.9663 0.2571
vn -0.0536 0.5722 0.8184
vn -0.0602 0.4387 0.8966
vn -0.0402 0.8024 0.5955
vn -0.0327 0.9262 0.3757
vn -0.0219 0.9623 0.2712
vn -0.0702 0.4794 0.8748
vn -0.0582 0.4603 0.8859
vn -0.0687 0.6864 0.7240
vn -0.0331 0.9283 0.3703
vn 0.9941 -0.0657 0.0859
vn 0.9913 -0.0802 0.1048
vn 0.9921 -0.0762 0.0995
vn -0.0251 0.6078 -0.7937
vn -0.0178 0.6079 -0.7938
vn -0.0253 0.6078 -0.7937
vn 0.9817 -0.1158 0.1513
vn 0.9818 -0.1155 0.1509
vn 0.9696 -0.1488 0.1943
vn 0.9680 -0.1526 0.1993
vn 0.0385 -0.6075 0.7934
vn 0.0357 -0.6076 0.7935
vn 0.0356 -0.6076 0.7935
vn 0.9643 -0.1610 0.2102
vn 0.0312 -0.6077 0.7936
vn 0.0311 -0.6077 0.7936
vn -0.0310 0.6077 -0.7936
vn 0.0265 -0.6077 0.7937
vn 0.0264 -0.6077 0.7937
vn -0.0269 0.6077 -0.7937
vn -0.0268 0.6077 -0.7937
vn 0.0223 -0.6078 0.7938
vn -0.0225 0.6078 -0.7938
vn -0.0224 0.6078 -0.7938
vn 0.0171 -0.6079 0.7939
vn 0.0170 -0.6079 0.7939
vn -0.0174 0.6079 -0.7939
vn -0.0173 0.6079 -0.7939
vn 0.0099 -0.6079 0.7939
vn 0.0097 -0.6079 0.7939
vn -0.0119 0.6079 -0.7939
vn -0.0118 0.6079 -0.7939
vn -0.0013 -0.6080 0.7940
vn -0.0015 -0.6080 0.7940
vn -0.0008 0.6080 -0.7940
vn -0.0005 0.6080 -0.7940
vn -0.0148 -0.6079 0.7939
vn -0.0149 -0.6079 0.7939
vn 0.0138 0.6079 -0.7939
vn 0.0140 0.6079 -0.7939
vn -0.0258 -0.6078 0.7937
vn -0.0260 -0.6077 0.7937
vn 0.0257 0.6078 -0.7937
vn 0.0259 0.6078 -0.7937
vn -0.0491 -0.6072 0.7930
vn -0.0498 -0.6072 0.7930
vn -0.1835 0.5976 -0.7805
vn -0.1716 0.5989 -0.7822
vn -0.5610 0.5033 -0.6573
vn -0.4726 0.5358 -0.6997
vn -0.4969 0.5276 -0.6890
vn -0.0675 -0.6066 0.7922
vn -0.4834 0.5322 -0.6950
vn -0.4804 0.5332 -0.6964
vn -0.4760 0.5347 -0.6983
vn -0.4628 0.5389 -0.7038
vn -0.0071 -0.1960 0.9806
vn -0.0098 -0.1959 0.9806
vn -0.0077 -0.1954 0.9807
vn -0.0064 -0.1665 0.9860
vn -0.0066 -0.1654 0.9862
vn -0.0075 -0.1254 0.9921
vn -0.0077 -0.1247 0.9922
vn -0.0063 -0.1211 0.9926
vn -0.0064 -0.1204 0.9927
vn -0.0084 -0.0778 0.9969
vn -0.0084 -0.0782 0.9969
vn -0.0065 -0.0963 0.9953
vn -0.0065 -0.0968 0.9953
vn -0.0050 -0.1210 0.9926
vn -0.0051 -0.1209 0.9927
vn -0.0043 -0.1053 0.9944
vn -0.0039 -0.1051 0.9945
vn 0.0001 -0.1695 0.9855
vn 0.0001 -0.1688 0.9857
vn -0.0130 0.1582 0.9873
vn -0.0128 0.1595 0.9871
vn -0.0133 0.1324 0.9911
vn -0.0134 0.1325 0.9911
vn 0.0016 -0.4085 0.9128
vn 0.0031 -0.4179 0.9085
vn 0.0031 -0.4176 0.9086
vn 0.0015 -0.4080 0.9130
vn -0.0002 -0.4052 0.9142
vn -0.0001 -0.4062 0.9138
vn -0.0108 0.1735 0.9848
vn -0.0108 0.1723 0.9850
vn -0.0137 0.1142 0.9934
vn -0.0139 0.1128 0.9935
vn -0.0156 0.1369 0.9905
vn -0.0154 0.1386 0.9902
vn -0.0160 0.1722 0.9849
vn -0.0160 0.1733 0.9847
vn -0.0138 0.1741 0.9846
vn -0.0131 0.1721 0.9850
vn -0.0049 0.1977 0.9802
vn -0.0137 0.0794 0.9968
vn -0.0148 0.0654 0.9978
vn 0.0033 -0.4032 0.9151
vn 0.0025 -0.4167 0.9090
vn 0.0024 -0.4160 0.9094
vn 0.0021 -0.3993 0.9168
vn 0.0023 -0.4148 0.9099
vn 0.0022 -0.4154 0.9097
vn 0.0019 -0.4269 0.9043
vn 0.0019 -0.4286 0.9035
vn 0.0023 -0.3537 0.9353
vn -0.0039 -0.3464 0.9381
vn 0.0125 -0.3224 0.9465
vn -0.0190 -0.3072 0.9515
vn 0.0293 -0.2914 0.9561
vn -0.0765 -0.2681 0.9604
vn 0.0042 -0.4193 0.9078
vn 0.0040 -0.4192 0.9079
vn -0.0076 0.1062 0.9943
vn -0.0080 0.1064 0.9943
vn -0.0084 0.1341 0.9909
vn -0.0085 0.1357 0.9907
vn 0.0055 -0.4114 0.9114
vn 0.0056 -0.4109 0.9116
vn -0.4041 0.9147 -0.0000
vn -0.3497 0.9369 -0.0000
vn -0.3512 0.9363 -0.0000
vn -0.4081 0.9129 -0.0000
vn 1.0000 0.0016 -0.0000
vn 0.9975 0.0706 0.0044
vn 0.9958 0.0917 -0.0000
vn 0.9999 -0.0020 0.0132
vn -0.0351 0.9994 -0.0000
vn -0.0329 0.9995 -0.0000
vn 0.0198 -0.9998 -0.0000
vn 0.0199 -0.9998 -0.0000
vn 0.0222 -0.9998 -0.0000
vn -0.0391 0.9992 -0.0000
vn -0.0389 0.9992 -0.0000
vn -0.0388 0.9992 -0.0000
vn -0.0360 0.9994 -0.0000
vn -0.0378 0.9993 -0.0000
vn -0.0467 0.9989 -0.0000
vn -0.0468 0.9989 -0.0000
vn -0.2768 0.9609 -0.0000
vn -0.1449 0.9894 -0.0000
vn -0.1425 0.9898 -0.0000
vn -0.2755 0.9613 -0.0000
vn 0.0181 -0.9998 -0.0000
vn 0.0185 -0.9998 -0.0000
vn 0.0178 -0.9998 -0.0000
vn 0.0206 -0.9998 -0.0000
vn 0.0087 -1.0000 -0.0000
vn -0.2350 -0.9720 -0.0000
vn -0.2068 -0.9784 -0.0000
vn -0.5862 0.8102 -0.0000
vn -0.6322 0.7748 -0.0000
vn -0.7898 -0.6134 -0.0000
vn -0.9601 0.2797 -0.0000
vn -0.9941 0.1085 -0.0000
vn -0.7130 -0.7012 -0.0000
vn 0.0221 -0.9998 -0.0000
vn 0.0221 -0.9998 0.0010
vn -0.0331 0.9995 -0.0001
vn -0.0331 0.9995 -0.0000
vn 0.7230 0.6888 0.0533
vn 0.6745 0.7354 0.0650
vn 0.8254 -0.5607 0.0666
vn 0.5631 -0.8235 0.0696
# 224 vertex normals

vt 1.0000 1.0000 1.0000
# 1 texture coords

o car_48
g car_48
usemtl 01___Default
s 1
f 1/1/1 2/1/2 3/1/3 
f 3/1/3 4/1/4 1/1/1 
f 5/1/5 4/1/4 3/1/3 
f 3/1/3 6/1/6 5/1/5 
f 7/1/7 5/1/5 6/1/6 
f 6/1/6 8/1/8 7/1/7 
f 9/1/9 7/1/7 8/1/8 
f 8/1/8 10/1/10 9/1/9 
f 11/1/11 12/1/12 10/1/10 
f 10/1/10 8/1/8 11/1/11 
f 13/1/13 11/1/11 8/1/8 
f 8/1/8 6/1/6 13/1/13 
f 14/1/14 13/1/13 6/1/6 
f 6/1/6 3/1/3 14/1/14 
f 15/1/15 14/1/14 3/1/3 
f 3/1/3 2/1/2 15/1/15 
f 16/1/16 17/1/17 12/1/12 
f 12/1/12 11/1/11 16/1/16 
f 18/1/18 16/1/16 11/1/11 
f 11/1/11 13/1/13 18/1/18 
f 19/1/19 18/1/18 13/1/13 
f 13/1/13 14/1/14 19/1/19 
f 20/1/20 19/1/19 14/1/14 
f 14/1/14 15/1/15 20/1/20 
f 21/1/21 22/1/22 17/1/17 
f 17/1/17 16/1/16 21/1/21 
f 23/1/23 21/1/21 16/1/16 
f 16/1/16 18/1/18 23/1/23 
f 24/1/24 23/1/23 18/1/18 
f 18/1/18 19/1/19 24/1/24 
f 25/1/25 24/1/24 19/1/19 
f 19/1/19 20/1/20 25/1/25 
f 26/1/26 27/1/27 22/1/22 
f 22/1/22 21/1/21 26/1/26 
f 28/1/28 26/1/26 21/1/21 
f 21/1/21 23/1/23 28/1/28 
f 29/1/29 28/1/28 23/1/23 
f 23/1/23 24/1/24 29/1/29 
f 30/1/30 29/1/29 24/1/24 
f 24/1/24 25/1/25 30/1/30 
f 31/1/31 32/1/32 27/1/27 
f 27/1/27 26/1/26 31/1/31 
f 33/1/33 31/1/31 26/1/26 
f 26/1/26 28/1/28 33/1/33 
f 34/1/34 33/1/33 28/1/28 
f 28/1/28 29/1/29 34/1/34 
f 35/1/35 34/1/34 29/1/29 
f 29/1/29 30/1/30 35/1/35 
f 36/1/36 37/1/37 32/1/32 
f 32/1/32 31/1/31 36/1/36 
f 38/1/38 36/1/36 31/1/31 
f 31/1/31 33/1/33 38/1/38 
f 39/1/39 38/1/38 33/1/33 
f 33/1/33 34/1/34 39/1/39 
f 40/1/40 39/1/39 34/1/34 
f 34/1/34 35/1/35 40/1/40 
f 41/1/41 42/1/42 37/1/37 
f 37/1/37 36/1/36 41/1/41 
f 43/1/43 41/1/41 36/1/36 
f 36/1/36 38/1/38 43/1/43 
f 44/1/44 43/1/43 38/1/38 
f 38/1/38 39/1/39 44/1/44 
f 45/1/45 44/1/44 39/1/39 
f 39/1/39 40/1/40 45/1/45 
f 46/1/46 47/1/47 42/1/42 
f 42/1/42 41/1/41 46/1/46 
f 48/1/48 46/1/46 41/1/41 
f 41/1/41 43/1/43 48/1/48 
f 49/1/49 48/1/48 43/1/43 
f 43/1/43 44/1/44 49/1/49 
f 50/1/50 49/1/49 44/1/44 
f 44/1/44 45/1/45 50/1/50 
f 51/1/51 52/1/52 47/1/47 
f 47/1/47 46/1/46 51/1/51 
f 53/1/53 51/1/51 46/1/46 
f 46/1/46 48/1/48 53/1/53 
f 54/1/54 53/1/53 48/1/48 
f 48/1/48 49/1/49 54/1/54 
f 55/1/55 54/1/54 49/1/49 
f 49/1/49 50/1/50 55/1/55 
f 56/1/56 57/1/57 52/1/52 
f 52/1/52 51/1/51 56/1/56 
f 58/1/58 56/1/56 51/1/51 
f 51/1/51 53/1/53 58/1/58 
f 59/1/59 58/1/58 53/1/53 
f 53/1/53 54/1/54 59/1/59 
f 59/1/59 54/1/54 55/1/55 
s 2
f 1/1/60 4/1/61 60/1/62 
f 60/1/62 61/1/60 1/1/60 
s 4
f 2/1/63 1/1/64 61/1/64 
f 61/1/64 62/1/65 2/1/63 
s 2
f 4/1/61 5/1/66 63/1/67 
f 63/1/67 60/1/62 4/1/61 
f 5/1/66 7/1/68 64/1/69 
f 64/1/69 63/1/67 5/1/66 
s 8
f 9/1/70 10/1/71 65/1/72 
f 65/1/72 66/1/70 9/1/70 
s 2
f 7/1/68 9/1/73 66/1/73 
f 66/1/73 64/1/69 7/1/68 
s 8
f 10/1/71 12/1/74 67/1/75 
f 67/1/75 65/1/72 10/1/71 
s 4
f 15/1/76 2/1/63 62/1/65 
f 62/1/65 68/1/76 15/1/76 
s 8
f 12/1/74 17/1/77 69/1/78 
f 69/1/78 67/1/75 12/1/74 
s 4
f 20/1/79 15/1/76 68/1/76 
f 68/1/76 70/1/80 20/1/79 
s 8
f 17/1/77 22/1/81 71/1/81 
f 71/1/81 69/1/78 17/1/77 
s 4
f 25/1/82 20/1/79 70/1/80 
f 70/1/80 72/1/83 25/1/82 
s 8
f 22/1/81 27/1/84 73/1/85 
f 73/1/85 71/1/81 22/1/81 
s 4
f 30/1/86 25/1/82 72/1/83 
f 72/1/83 74/1/87 30/1/86 
s 8
f 27/1/84 32/1/88 75/1/89 
f 75/1/89 73/1/85 27/1/84 
s 4
f 35/1/90 30/1/86 74/1/87 
f 74/1/87 76/1/91 35/1/90 
s 8
f 32/1/88 37/1/92 77/1/93 
f 77/1/93 75/1/89 32/1/88 
s 4
f 40/1/94 35/1/90 76/1/91 
f 76/1/91 78/1/95 40/1/94 
s 8
f 37/1/92 42/1/96 79/1/97 
f 79/1/97 77/1/93 37/1/92 
s 4
f 45/1/98 40/1/94 78/1/95 
f 78/1/95 80/1/99 45/1/98 
s 8
f 42/1/96 47/1/100 81/1/101 
f 81/1/101 79/1/97 42/1/96 
s 4
f 50/1/102 45/1/98 80/1/99 
f 80/1/99 82/1/103 50/1/102 
s 8
f 47/1/100 52/1/104 83/1/105 
f 83/1/105 81/1/101 47/1/100 
s 4
f 55/1/106 50/1/102 82/1/103 
f 82/1/103 84/1/107 55/1/106 
f 57/1/108 56/1/109 85/1/110 
f 85/1/110 86/1/108 57/1/108 
s 8
f 52/1/104 57/1/111 86/1/111 
f 86/1/111 83/1/105 52/1/104 
s 4
f 56/1/109 58/1/112 87/1/113 
f 87/1/113 85/1/110 56/1/109 
f 58/1/112 59/1/114 88/1/115 
f 88/1/115 87/1/113 58/1/112 
f 59/1/114 55/1/106 84/1/107 
f 84/1/107 88/1/115 59/1/114 
s 8
f 89/1/116 90/1/117 91/1/117 
f 91/1/117 92/1/118 89/1/116 
f 93/1/119 89/1/116 92/1/118 
f 92/1/118 94/1/120 93/1/119 
f 95/1/121 93/1/119 94/1/120 
f 94/1/120 96/1/122 95/1/121 
f 97/1/123 95/1/121 96/1/122 
f 96/1/122 98/1/124 97/1/123 
f 98/1/124 99/1/125 100/1/126 
f 100/1/126 97/1/123 98/1/124 
f 101/1/127 100/1/126 99/1/125 
f 99/1/125 102/1/128 101/1/127 
f 102/1/128 103/1/129 104/1/130 
f 104/1/130 101/1/127 102/1/128 
f 103/1/129 105/1/131 106/1/132 
f 106/1/132 104/1/130 103/1/129 
f 105/1/131 107/1/133 108/1/134 
f 108/1/134 106/1/132 105/1/131 
s 1
f 109/1/135 101/1/136 104/1/137 
f 104/1/137 110/1/138 109/1/135 
f 111/1/139 112/1/140 103/1/141 
f 103/1/141 102/1/142 111/1/139 
f 113/1/143 111/1/139 102/1/142 
f 102/1/142 99/1/144 113/1/143 
f 101/1/136 109/1/135 114/1/145 
f 114/1/145 100/1/146 101/1/136 
f 100/1/146 114/1/145 115/1/147 
f 115/1/147 97/1/148 100/1/146 
f 97/1/148 115/1/147 116/1/149 
f 116/1/149 95/1/150 97/1/148 
f 95/1/150 116/1/149 117/1/151 
f 117/1/151 93/1/152 95/1/150 
f 93/1/152 117/1/151 118/1/153 
f 118/1/153 89/1/154 93/1/152 
f 119/1/155 120/1/156 89/1/154 
f 89/1/154 118/1/153 119/1/155 
f 120/1/156 90/1/157 89/1/154 
f 121/1/158 122/1/159 94/1/160 
f 94/1/160 92/1/161 121/1/158 
f 94/1/160 122/1/159 123/1/162 
f 123/1/162 96/1/163 94/1/160 
f 96/1/163 123/1/162 124/1/164 
f 124/1/164 98/1/165 96/1/163 
f 124/1/164 113/1/143 99/1/144 
f 99/1/144 98/1/165 124/1/164 
f 125/1/166 121/1/158 92/1/161 
f 92/1/161 91/1/167 125/1/166 
f 126/1/168 125/1/166 91/1/167 
f 91/1/167 127/1/169 126/1/168 
f 128/1/170 126/1/168 127/1/169 
f 127/1/169 129/1/171 128/1/170 
f 103/1/141 112/1/140 130/1/172 
f 130/1/172 105/1/173 103/1/141 
f 131/1/174 110/1/138 104/1/137 
f 104/1/137 106/1/175 131/1/174 
f 132/1/176 131/1/174 106/1/175 
f 106/1/175 108/1/177 132/1/176 
f 105/1/173 130/1/172 133/1/178 
f 133/1/178 107/1/179 105/1/173 
s 536870912
f 91/1/180 90/1/181 134/1/182 
f 134/1/182 135/1/183 91/1/180 
f 108/1/184 107/1/185 136/1/186 
f 136/1/186 137/1/187 108/1/184 
f 109/1/188 110/1/189 138/1/189 
f 138/1/189 139/1/188 109/1/188 
f 112/1/190 111/1/191 140/1/191 
f 140/1/191 141/1/190 112/1/190 
f 111/1/191 113/1/192 142/1/192 
f 142/1/192 140/1/191 111/1/191 
f 114/1/193 109/1/188 139/1/188 
f 139/1/188 143/1/193 114/1/193 
f 115/1/194 114/1/193 143/1/193 
f 143/1/193 144/1/195 115/1/194 
f 116/1/196 115/1/194 144/1/195 
f 144/1/195 145/1/196 116/1/196 
f 117/1/197 116/1/196 145/1/196 
f 145/1/196 146/1/197 117/1/197 
f 118/1/198 117/1/197 146/1/197 
f 146/1/197 147/1/199 118/1/198 
f 120/1/200 119/1/201 148/1/202 
f 148/1/202 149/1/203 120/1/200 
f 119/1/201 118/1/198 147/1/199 
f 147/1/199 148/1/202 119/1/201 
f 90/1/181 120/1/200 149/1/203 
f 149/1/203 134/1/182 90/1/181 
f 122/1/204 121/1/205 150/1/205 
f 150/1/205 151/1/204 122/1/204 
f 123/1/206 122/1/204 151/1/204 
f 151/1/204 152/1/206 123/1/206 
f 124/1/207 123/1/206 152/1/206 
f 152/1/206 153/1/207 124/1/207 
f 113/1/192 124/1/207 153/1/207 
f 153/1/207 142/1/192 113/1/192 
f 121/1/205 125/1/208 154/1/208 
f 154/1/208 150/1/205 121/1/205 
f 125/1/208 126/1/209 155/1/210 
f 155/1/210 154/1/208 125/1/208 
f 127/1/211 91/1/180 135/1/183 
f 135/1/183 156/1/212 127/1/211 
f 128/1/213 129/1/214 157/1/215 
f 157/1/215 158/1/216 128/1/213 
f 126/1/209 128/1/213 158/1/216 
f 158/1/216 155/1/210 126/1/209 
f 129/1/214 127/1/211 156/1/212 
f 156/1/212 157/1/215 129/1/214 
f 130/1/217 112/1/190 141/1/190 
f 141/1/190 159/1/218 130/1/217 
f 110/1/189 131/1/219 160/1/220 
f 160/1/220 138/1/189 110/1/189 
f 132/1/221 108/1/184 137/1/187 
f 137/1/187 161/1/222 132/1/221 
f 131/1/219 132/1/221 161/1/222 
f 161/1/222 160/1/220 131/1/219 
f 107/1/185 133/1/223 162/1/224 
f 162/1/224 136/1/186 107/1/185 
f 133/1/223 130/1/217 159/1/218 
f 159/1/218 162/1/224 133/1/223 
# 262 faces

