# 3ds Max Wavefront OBJ Exporter v0.97b - (c)2007 guruware
# File Created: 16.04.2021 22:09:11

mtllib car-58.mtl

#
# object car_58
#

v  33.7275 215.1024 -159.3287
v  46.1343 215.4787 -158.9671
v  46.2187 215.1326 -160.2952
v  33.5808 214.7547 -160.4882
v  57.0201 215.8479 -158.7278
v  57.1049 215.4838 -160.0518
v  80.6695 216.2586 -159.4313
v  61.1570 215.6146 -159.9612
v  61.0721 215.9854 -158.6387
v  80.5843 216.6399 -158.1105
v  102.2144 217.0282 -158.6348
v  102.1319 217.3056 -157.2867
v  123.8448 217.8010 -157.8592
v  123.7601 218.1657 -156.5292
v  136.9323 218.4618 -157.2358
v  136.8476 218.8271 -155.9062
v  149.7746 219.3494 -156.5483
v  149.6884 219.7456 -155.2194
v  164.6583 220.7496 -155.4521
v  164.5750 221.1064 -154.1235
v  182.9854 222.6776 -154.0116
v  182.9023 223.0313 -152.6825
v  199.4217 224.9206 -151.2133
v  199.5037 224.5770 -152.5412
v  222.8452 227.4528 -150.1683
v  203.3922 225.0240 -152.1950
v  203.3105 225.3654 -150.8675
v  222.4283 227.7242 -148.9927
v  33.7275 213.7258 -158.0533
v  46.1343 214.1021 -157.6917
v  57.0201 214.4714 -157.4524
v  61.0721 214.6088 -157.3633
v  80.5843 215.2633 -156.8350
v  102.1319 215.9290 -156.0113
v  123.7601 216.7891 -155.2538
v  136.8476 217.4505 -154.6307
v  149.6884 218.3690 -153.9440
v  164.5750 219.7298 -152.8480
v  182.9023 221.6547 -151.4071
v  199.4217 223.5440 -149.9379
v  203.3105 223.9888 -149.5921
v  222.4283 226.3476 -147.7172
v  33.5808 212.7089 -160.4882
v  33.7275 213.0566 -159.3287
v  46.2187 213.0868 -160.2952
v  61.1570 213.5688 -159.9612
v  57.1049 213.4380 -160.0518
v  80.6695 214.2128 -159.4313
v  102.2144 214.9823 -158.6348
v  123.8448 215.7552 -157.8592
v  136.9323 216.4160 -157.2358
v  149.7746 217.3036 -156.5483
v  164.6583 218.7038 -155.4521
v  182.9854 220.6318 -154.0116
v  203.3922 222.9782 -152.1950
v  199.5037 222.5311 -152.5412
v  222.8452 225.4070 -150.1683
v  222.4283 225.6784 -148.9927
v  33.7275 211.6800 -158.0533
v  222.4283 224.3018 -147.7172
v  46.1343 212.0563 -157.6917
v  57.0201 212.4256 -157.4524
v  61.0721 212.5630 -157.3633
v  80.5843 213.2175 -156.8350
v  102.1319 213.8832 -156.0113
v  123.7601 214.7433 -155.2538
v  136.8476 215.4047 -154.6307
v  149.6884 216.3232 -153.9440
v  164.5750 217.6840 -152.8480
v  182.9023 219.6089 -151.4071
v  199.4217 221.4982 -149.9379
v  203.3105 221.9430 -149.5921
v  57.0201 213.0086 -155.8820
v  61.0721 213.1461 -155.7929
v  80.5843 213.8006 -155.2647
v  102.1319 214.4662 -154.4409
v  123.7601 215.3264 -153.6834
v  136.8476 215.9878 -153.0604
v  149.6884 216.9063 -152.3736
v  164.5750 218.2671 -151.2777
v  182.9023 220.1920 -149.8367
v  199.4217 222.0813 -148.3676
# 82 vertices

vn -0.0242 0.9590 -0.2823
vn -0.0245 0.9670 -0.2536
vn -0.0246 0.9666 -0.2550
vn -0.0243 0.9584 -0.2843
vn -0.0260 0.9636 -0.2661
vn -0.0258 0.9633 -0.2671
vn -0.0243 0.9601 -0.2785
vn -0.0247 0.9622 -0.2714
vn -0.0249 0.9622 -0.2710
vn -0.0243 0.9605 -0.2772
vn -0.0251 0.9785 -0.2045
vn -0.0251 0.9786 -0.2042
vn -0.0325 0.9637 -0.2650
vn -0.0325 0.9634 -0.2662
vn -0.0441 0.9626 -0.2672
vn -0.0441 0.9624 -0.2680
vn -0.0606 0.9557 -0.2881
vn -0.0609 0.9557 -0.2881
vn -0.0744 0.9617 -0.2637
vn -0.0747 0.9619 -0.2629
vn -0.0838 0.9616 -0.2612
vn -0.0840 0.9617 -0.2610
vn -0.0877 0.9631 -0.2545
vn -0.0878 0.9630 -0.2548
vn -0.0937 0.9623 -0.2552
vn -0.0907 0.9631 -0.2534
vn -0.0909 0.9631 -0.2533
vn -0.0937 0.9623 -0.2553
vn -0.0420 0.6790 0.7329
vn -0.0381 0.3609 0.9318
vn -0.0355 0.3640 0.9307
vn -0.0405 0.6791 0.7329
vn -0.0392 0.6791 0.7330
vn -0.0328 0.3647 0.9305
vn -0.0409 0.6791 0.7329
vn -0.0352 0.3649 0.9304
vn -0.0422 0.3653 0.9299
vn -0.0458 0.6789 0.7328
vn -0.0469 0.3635 0.9304
vn -0.0508 0.6788 0.7326
vn -0.0549 0.3637 0.9299
vn -0.0609 0.6784 0.7322
vn -0.0691 0.3619 0.9296
vn -0.0784 0.6776 0.7313
vn -0.0886 0.3618 0.9280
vn -0.1016 0.6761 0.7298
vn -0.1060 0.3610 0.9265
vn -0.1218 0.6746 0.7281
vn -0.1172 0.3610 0.9252
vn -0.1349 0.6734 0.7268
vn -0.1235 0.3611 0.9243
vn -0.1415 0.6728 0.7262
vn -0.1478 0.6722 0.7255
vn -0.1293 0.3602 0.9239
vn -0.1364 0.3776 0.9159
vn -0.1539 0.6715 0.7248
vn -0.9921 0.0000 0.1256
vn -0.9985 0.0000 0.0550
vn -0.9968 0.0000 0.0795
vn 0.0189 0.0000 -0.9998
vn 0.0187 0.0000 -0.9998
vn 0.0153 0.0000 -0.9999
vn 0.0223 0.0000 -0.9998
vn 0.0248 0.0000 -0.9997
vn 0.0247 0.0000 -0.9997
vn 0.0322 0.0000 -0.9995
vn 0.0319 0.0000 -0.9995
vn 0.0364 0.0000 -0.9993
vn 0.0419 0.0000 -0.9991
vn 0.0415 0.0000 -0.9991
vn 0.0506 0.0000 -0.9987
vn 0.0504 0.0000 -0.9987
vn 0.0640 0.0000 -0.9980
vn 0.0629 0.0000 -0.9980
vn 0.0761 0.0000 -0.9971
vn 0.0758 0.0000 -0.9971
vn 0.0839 0.0000 -0.9965
vn 0.0832 0.0000 -0.9965
vn 0.0887 0.0000 -0.9961
vn 0.0967 0.0000 -0.9953
vn 0.0956 0.0000 -0.9954
vn 0.1036 0.0000 -0.9946
vn 0.9759 0.0000 0.2184
vn 0.9895 0.0000 0.1448
vn 0.9425 0.0000 0.3342
vn -1.0000 0.0000 -0.0000
vn 1.0000 0.0000 -0.0000
vn -0.0291 0.0000 0.9996
vn -0.0256 0.0000 0.9997
vn -0.0220 0.0000 0.9998
vn -0.0245 0.0000 0.9997
vn -0.0325 0.0000 0.9995
vn -0.0366 0.0000 0.9993
vn -0.0411 0.0000 0.9992
vn -0.0504 0.0000 0.9987
vn -0.0629 0.0000 0.9980
vn -0.0757 0.0000 0.9971
vn -0.0831 0.0000 0.9965
vn -0.0886 0.0000 0.9961
vn -0.0928 0.0000 0.9957
vn -0.0976 0.0000 0.9952
vn -0.0241 0.9372 -0.3480
vn -0.0231 0.9372 -0.3480
vn -0.0188 0.9373 -0.3480
vn -0.0189 0.9373 -0.3480
vn -0.0205 0.9373 -0.3480
vn -0.0202 0.9373 -0.3480
vn -0.0280 0.9371 -0.3479
vn -0.0278 0.9371 -0.3479
vn -0.0400 0.9367 -0.3478
vn -0.0392 0.9367 -0.3478
vn -0.0545 0.9361 -0.3476
vn -0.0538 0.9361 -0.3476
vn -0.0658 0.9354 -0.3473
vn -0.0651 0.9355 -0.3473
vn -0.0737 0.9349 -0.3471
vn -0.0733 0.9349 -0.3471
vn -0.0760 0.9348 -0.3471
# 118 vertex normals

vt 1.0000 1.0000 1.0000
# 1 texture coords

o car_58
g car_58
usemtl 01___Default
s 1
f 1/1/1 2/1/2 3/1/3 
f 3/1/3 4/1/4 1/1/1 
f 3/1/3 2/1/2 5/1/5 
f 5/1/5 6/1/6 3/1/3 
f 7/1/7 8/1/8 9/1/9 
f 9/1/9 10/1/10 7/1/7 
f 11/1/11 7/1/7 10/1/10 
f 10/1/10 12/1/12 11/1/11 
f 13/1/13 11/1/11 12/1/12 
f 12/1/12 14/1/14 13/1/13 
f 15/1/15 13/1/13 14/1/14 
f 14/1/14 16/1/16 15/1/15 
f 17/1/17 15/1/15 16/1/16 
f 16/1/16 18/1/18 17/1/17 
f 19/1/19 17/1/17 18/1/18 
f 18/1/18 20/1/20 19/1/19 
f 21/1/21 19/1/19 20/1/20 
f 20/1/20 22/1/22 21/1/21 
f 22/1/22 23/1/23 24/1/24 
f 24/1/24 21/1/21 22/1/22 
f 25/1/25 26/1/26 27/1/27 
f 27/1/27 28/1/28 25/1/25 
s 2
f 1/1/29 29/1/30 30/1/31 
f 30/1/31 2/1/32 1/1/29 
f 5/1/33 2/1/32 30/1/31 
f 30/1/31 31/1/34 5/1/33 
f 9/1/35 32/1/36 33/1/37 
f 33/1/37 10/1/38 9/1/35 
f 10/1/38 33/1/37 34/1/39 
f 34/1/39 12/1/40 10/1/38 
f 12/1/40 34/1/39 35/1/41 
f 35/1/41 14/1/42 12/1/40 
f 14/1/42 35/1/41 36/1/43 
f 36/1/43 16/1/44 14/1/42 
f 16/1/44 36/1/43 37/1/45 
f 37/1/45 18/1/46 16/1/44 
f 18/1/46 37/1/45 38/1/47 
f 38/1/47 20/1/48 18/1/46 
f 20/1/48 38/1/47 39/1/49 
f 39/1/49 22/1/50 20/1/48 
f 22/1/50 39/1/49 40/1/51 
f 40/1/51 23/1/52 22/1/50 
f 27/1/53 41/1/54 42/1/55 
f 42/1/55 28/1/56 27/1/53 
s 4
f 4/1/57 43/1/57 44/1/58 
f 44/1/58 1/1/59 4/1/57 
s 2
f 3/1/60 45/1/61 43/1/62 
f 43/1/62 4/1/62 3/1/60 
f 6/1/63 8/1/64 46/1/65 
f 46/1/65 47/1/63 6/1/63 
f 7/1/66 48/1/67 46/1/65 
f 46/1/65 8/1/64 7/1/66 
f 11/1/68 49/1/68 48/1/67 
f 48/1/67 7/1/66 11/1/68 
f 13/1/69 50/1/70 49/1/68 
f 49/1/68 11/1/68 13/1/69 
f 15/1/71 51/1/72 50/1/70 
f 50/1/70 13/1/69 15/1/71 
f 17/1/73 52/1/74 51/1/72 
f 51/1/72 15/1/71 17/1/73 
f 19/1/75 53/1/76 52/1/74 
f 52/1/74 17/1/73 19/1/75 
f 21/1/77 54/1/78 53/1/76 
f 53/1/76 19/1/75 21/1/77 
f 24/1/79 26/1/80 55/1/81 
f 55/1/81 56/1/79 24/1/79 
f 25/1/82 57/1/82 55/1/81 
f 55/1/81 26/1/80 25/1/82 
s 4
f 28/1/83 58/1/84 57/1/85 
f 57/1/85 25/1/85 28/1/83 
f 1/1/59 44/1/58 59/1/86 
f 59/1/86 29/1/86 1/1/59 
f 42/1/87 60/1/87 58/1/84 
f 58/1/84 28/1/83 42/1/87 
s 2
f 29/1/30 59/1/88 61/1/89 
f 61/1/89 30/1/31 29/1/30 
f 30/1/31 61/1/89 62/1/90 
f 62/1/90 31/1/34 30/1/31 
f 32/1/36 63/1/91 64/1/92 
f 64/1/92 33/1/37 32/1/36 
f 33/1/37 64/1/92 65/1/93 
f 65/1/93 34/1/39 33/1/37 
f 34/1/39 65/1/93 66/1/94 
f 66/1/94 35/1/41 34/1/39 
f 35/1/41 66/1/94 67/1/95 
f 67/1/95 36/1/43 35/1/41 
f 36/1/43 67/1/95 68/1/96 
f 68/1/96 37/1/45 36/1/43 
f 37/1/45 68/1/96 69/1/97 
f 69/1/97 38/1/47 37/1/45 
f 38/1/47 69/1/97 70/1/98 
f 70/1/98 39/1/49 38/1/47 
f 39/1/49 70/1/98 71/1/99 
f 71/1/99 40/1/51 39/1/49 
f 41/1/54 72/1/100 60/1/101 
f 60/1/101 42/1/55 41/1/54 
s 1
f 26/1/26 24/1/24 23/1/23 
f 23/1/23 27/1/27 26/1/26 
s 2
f 23/1/52 40/1/51 41/1/54 
f 41/1/54 27/1/53 23/1/52 
f 21/1/77 24/1/79 56/1/79 
f 56/1/79 54/1/78 21/1/77 
f 40/1/51 71/1/99 72/1/100 
f 72/1/100 41/1/54 40/1/51 
s 1
f 6/1/6 5/1/5 9/1/9 
f 9/1/9 8/1/8 6/1/6 
s 2
f 5/1/33 31/1/34 32/1/36 
f 32/1/36 9/1/35 5/1/33 
f 3/1/60 6/1/63 47/1/63 
f 47/1/63 45/1/61 3/1/60 
f 31/1/34 62/1/90 63/1/91 
f 63/1/91 32/1/36 31/1/34 
s 512
f 62/1/102 73/1/102 74/1/103 
f 74/1/103 63/1/103 62/1/102 
f 63/1/103 74/1/103 75/1/104 
f 75/1/104 64/1/105 63/1/103 
f 64/1/105 75/1/104 76/1/106 
f 76/1/106 65/1/107 64/1/105 
f 65/1/107 76/1/106 77/1/108 
f 77/1/108 66/1/109 65/1/107 
f 66/1/109 77/1/108 78/1/110 
f 78/1/110 67/1/111 66/1/109 
f 67/1/111 78/1/110 79/1/112 
f 79/1/112 68/1/113 67/1/111 
f 68/1/113 79/1/112 80/1/114 
f 80/1/114 69/1/115 68/1/113 
f 69/1/115 80/1/114 81/1/116 
f 81/1/116 70/1/117 69/1/115 
f 70/1/117 81/1/116 82/1/118 
f 82/1/118 71/1/118 70/1/117 
# 130 faces

