# 3ds Max Wavefront OBJ Exporter v0.97b - (c)2007 guruware
# File Created: 28.07.2021 21:06:40

mtllib car-22.mtl

#
# object car_22
#

v  278.4075 82.9287 -169.4134
v  277.9912 82.9287 -175.0869
v  277.6206 85.0308 -175.0869
v  278.0117 85.1732 -169.4134
v  276.5533 86.8793 -175.0869
v  276.8722 87.1469 -169.4134
v  274.9182 88.2514 -175.0869
v  275.1263 88.6118 -169.4134
v  272.9125 88.9814 -175.0869
v  272.9847 89.3913 -169.4134
v  270.7780 88.9814 -175.0869
v  270.7057 89.3913 -169.4134
v  268.7722 88.2514 -175.0869
v  268.5641 88.6118 -169.4134
v  267.1371 86.8793 -175.0869
v  266.8182 87.1469 -169.4134
v  266.0698 85.0308 -175.0869
v  265.6787 85.1732 -169.4134
v  265.6992 82.9287 -175.0869
v  265.2829 82.9287 -169.4134
v  266.0698 80.8267 -175.0869
v  265.6787 80.6843 -169.4134
v  267.1371 78.9781 -175.0869
v  266.8182 78.7106 -169.4134
v  268.7722 77.6061 -175.0869
v  268.5641 77.2457 -169.4134
v  270.7780 76.8761 -175.0869
v  270.7057 76.4662 -169.4134
v  272.9124 76.8761 -175.0869
v  272.9847 76.4662 -169.4134
v  274.9182 77.6061 -175.0869
v  275.1263 77.2456 -169.4134
v  276.5533 78.9781 -175.0869
v  276.8722 78.7106 -169.4134
v  277.6206 80.8267 -175.0869
v  278.0117 80.6843 -169.4134
v  271.8452 82.9287 -175.0869
v  -291.4645 82.9287 -169.4134
v  -291.8808 82.9287 -175.0869
v  -292.2515 85.0308 -175.0869
v  -291.8604 85.1732 -169.4134
v  -293.3187 86.8793 -175.0869
v  -292.9998 87.1469 -169.4134
v  -294.9538 88.2514 -175.0869
v  -294.7457 88.6118 -169.4134
v  -296.9596 88.9814 -175.0869
v  -296.8873 89.3913 -169.4134
v  -299.0941 88.9814 -175.0869
v  -299.1663 89.3913 -169.4134
v  -301.0999 88.2514 -175.0869
v  -301.3080 88.6118 -169.4134
v  -302.7350 86.8793 -175.0869
v  -303.0538 87.1469 -169.4134
v  -303.8022 85.0308 -175.0869
v  -304.1934 85.1732 -169.4134
v  -304.1729 82.9287 -175.0869
v  -304.5891 82.9287 -169.4134
v  -303.8022 80.8267 -175.0869
v  -304.1934 80.6843 -169.4134
v  -302.7350 78.9781 -175.0869
v  -303.0538 78.7106 -169.4134
v  -301.0999 77.6061 -175.0869
v  -301.3080 77.2457 -169.4134
v  -299.0941 76.8761 -175.0869
v  -299.1663 76.4662 -169.4134
v  -296.9596 76.8761 -175.0869
v  -296.8873 76.4662 -169.4134
v  -294.9538 77.6061 -175.0869
v  -294.7457 77.2456 -169.4134
v  -293.3187 78.9781 -175.0869
v  -292.9998 78.7106 -169.4134
v  -292.2515 80.8267 -175.0869
v  -291.8604 80.6843 -169.4134
v  -298.0269 82.9287 -175.0869
v  278.4075 82.9287 169.4134
v  278.0117 85.1731 169.4134
v  277.6206 85.0308 175.0869
v  277.9912 82.9287 175.0869
v  276.8722 87.1468 169.4134
v  276.5533 86.8793 175.0869
v  275.1263 88.6118 169.4134
v  274.9182 88.2513 175.0869
v  272.9847 89.3913 169.4134
v  272.9125 88.9813 175.0869
v  270.7057 89.3913 169.4134
v  270.7780 88.9813 175.0869
v  268.5641 88.6118 169.4134
v  268.7722 88.2513 175.0869
v  266.8182 87.1468 169.4134
v  267.1371 86.8793 175.0869
v  265.6787 85.1731 169.4134
v  266.0698 85.0308 175.0869
v  265.2829 82.9287 169.4134
v  265.6992 82.9287 175.0869
v  265.6787 80.6843 169.4134
v  266.0698 80.8266 175.0869
v  266.8182 78.7105 169.4134
v  267.1371 78.9781 175.0869
v  268.5641 77.2456 169.4134
v  268.7722 77.6061 175.0869
v  270.7057 76.4661 169.4134
v  270.7780 76.8760 175.0869
v  272.9847 76.4661 169.4134
v  272.9124 76.8760 175.0869
v  275.1263 77.2456 169.4134
v  274.9182 77.6061 175.0869
v  276.8722 78.7105 169.4134
v  276.5533 78.9781 175.0869
v  278.0117 80.6843 169.4134
v  277.6206 80.8266 175.0869
v  271.8452 82.9287 175.0869
v  -291.4645 82.9287 169.4134
v  -291.8604 85.1731 169.4134
v  -292.2515 85.0308 175.0869
v  -291.8808 82.9287 175.0869
v  -292.9998 87.1468 169.4134
v  -293.3187 86.8793 175.0869
v  -294.7457 88.6118 169.4134
v  -294.9538 88.2513 175.0869
v  -296.8873 89.3913 169.4134
v  -296.9596 88.9813 175.0869
v  -299.1663 89.3913 169.4134
v  -299.0941 88.9813 175.0869
v  -301.3080 88.6118 169.4134
v  -301.0999 88.2513 175.0869
v  -303.0538 87.1468 169.4134
v  -302.7350 86.8793 175.0869
v  -304.1934 85.1731 169.4134
v  -303.8022 85.0308 175.0869
v  -304.5891 82.9287 169.4134
v  -304.1729 82.9287 175.0869
v  -304.1934 80.6843 169.4134
v  -303.8022 80.8266 175.0869
v  -303.0538 78.7105 169.4134
v  -302.7350 78.9781 175.0869
v  -301.3080 77.2456 169.4134
v  -301.0999 77.6061 175.0869
v  -299.1663 76.4661 169.4134
v  -299.0941 76.8760 175.0869
v  -296.8873 76.4661 169.4134
v  -296.9596 76.8760 175.0869
v  -294.7457 77.2456 169.4134
v  -294.9538 77.6061 175.0869
v  -292.9998 78.7105 169.4134
v  -293.3187 78.9781 175.0869
v  -291.8604 80.6843 169.4134
v  -292.2515 80.8266 175.0869
v  -298.0269 82.9287 175.0869
# 148 vertices

vn 0.9973 -0.0000 -0.0732
vn 0.9372 0.3411 -0.0732
vn 0.7640 0.6411 -0.0732
vn 0.4987 0.8637 -0.0732
vn 0.1732 0.9822 -0.0732
vn -0.1732 0.9822 -0.0732
vn -0.4987 0.8637 -0.0732
vn -0.7640 0.6411 -0.0732
vn -0.9372 0.3411 -0.0732
vn -0.9973 0.0000 -0.0732
vn -0.9372 -0.3411 -0.0732
vn -0.7640 -0.6411 -0.0732
vn -0.4987 -0.8637 -0.0732
vn -0.1732 -0.9822 -0.0732
vn 0.1732 -0.9822 -0.0732
vn 0.4987 -0.8637 -0.0732
vn 0.7640 -0.6411 -0.0732
vn 0.9372 -0.3411 -0.0732
vn 0.0000 0.0000 -1.0000
vn 0.9973 0.0000 -0.0732
vn -0.9973 -0.0000 -0.0732
vn 0.9973 -0.0000 0.0732
vn 0.9372 0.3411 0.0732
vn 0.7640 0.6411 0.0732
vn 0.4987 0.8637 0.0732
vn 0.1732 0.9822 0.0732
vn -0.1732 0.9822 0.0732
vn -0.4987 0.8637 0.0732
vn -0.7640 0.6411 0.0732
vn -0.9372 0.3411 0.0732
vn -0.9973 0.0000 0.0732
vn -0.9372 -0.3411 0.0732
vn -0.7640 -0.6411 0.0732
vn -0.4987 -0.8637 0.0732
vn -0.1732 -0.9822 0.0732
vn 0.1732 -0.9822 0.0732
vn 0.4987 -0.8637 0.0732
vn 0.7640 -0.6411 0.0732
vn 0.9372 -0.3411 0.0732
vn 0.0000 -0.0000 1.0000
vn -0.0000 -0.0000 1.0000
vn 0.0000 0.0000 1.0000
vn -0.0000 0.0000 1.0000
vn 0.9973 0.0000 0.0732
vn -0.9973 -0.0000 0.0732
# 45 vertex normals

vt 0.7010 0.9160 0.0000
vt 0.7010 0.8513 0.0000
vt 0.7250 0.8513 0.0000
vt 0.7267 0.9160 0.0000
vt 0.7461 0.8513 0.0000
vt 0.7492 0.9160 0.0000
vt 0.7639 0.8421 0.0000
vt 0.6990 0.8413 0.0000
vt 0.6990 0.8169 0.0000
vt 0.7639 0.8161 0.0000
vt 0.6984 0.7940 0.0000
vt 0.7633 0.7917 0.0000
vt 0.6973 0.7754 0.0000
vt 0.7621 0.7717 0.0000
vt 0.6064 0.7664 0.0000
vt 0.5415 0.7656 0.0000
vt 0.5415 0.7412 0.0000
vt 0.6064 0.7404 0.0000
vt 0.5409 0.7183 0.0000
vt 0.6058 0.7159 0.0000
vt 0.9077 0.6795 0.0000
vt 0.9046 0.7442 0.0000
vt 0.8835 0.7442 0.0000
vt 0.8851 0.6795 0.0000
vt 0.8595 0.7442 0.0000
vt 0.8595 0.6795 0.0000
vt 0.8355 0.7442 0.0000
vt 0.8339 0.6795 0.0000
vt 0.8144 0.7442 0.0000
vt 0.8114 0.6795 0.0000
vt 0.6831 0.7748 0.0000
vt 0.6182 0.7740 0.0000
vt 0.6182 0.7496 0.0000
vt 0.6831 0.7488 0.0000
vt 0.6176 0.7267 0.0000
vt 0.6825 0.7243 0.0000
vt 0.6165 0.7080 0.0000
vt 0.6813 0.7044 0.0000
vt 0.6064 0.8186 0.0000
vt 0.5415 0.8178 0.0000
vt 0.5415 0.7934 0.0000
vt 0.6064 0.7926 0.0000
vt 0.5409 0.7705 0.0000
vt 0.6058 0.7681 0.0000
vt 0.6529 0.9160 0.0000
vt 0.6559 0.8513 0.0000
vt 0.6770 0.8513 0.0000
vt 0.6754 0.9160 0.0000
vt 0.4507 0.8476 0.0000
vt 0.4507 0.9177 0.0000
vt 0.4267 0.8518 0.0000
vt 0.4056 0.8640 0.0000
vt 0.3899 0.8827 0.0000
vt 0.3816 0.9056 0.0000
vt 0.3816 0.9299 0.0000
vt 0.3899 0.9528 0.0000
vt 0.4056 0.9715 0.0000
vt 0.4267 0.9837 0.0000
vt 0.4507 0.9879 0.0000
vt 0.4747 0.9837 0.0000
vt 0.4958 0.9715 0.0000
vt 0.5114 0.9528 0.0000
vt 0.5198 0.9299 0.0000
vt 0.5198 0.9056 0.0000
vt 0.5114 0.8827 0.0000
vt 0.4958 0.8640 0.0000
vt 0.4747 0.8518 0.0000
vt 0.8397 0.8019 0.0000
vt 0.7747 0.8011 0.0000
vt 0.7747 0.7767 0.0000
vt 0.8397 0.7759 0.0000
vt 0.7741 0.7538 0.0000
vt 0.8390 0.7514 0.0000
vt 0.5354 0.9856 0.0000
vt 0.5391 0.9209 0.0000
vt 0.5577 0.9209 0.0000
vt 0.5554 0.9856 0.0000
vt 0.5806 0.9209 0.0000
vt 0.5798 0.9856 0.0000
vt 0.6050 0.9209 0.0000
vt 0.6058 0.9856 0.0000
vt 0.6279 0.9209 0.0000
vt 0.6303 0.9856 0.0000
vt 0.6466 0.9209 0.0000
vt 0.6502 0.9856 0.0000
vt 0.6831 0.8466 0.0000
vt 0.6182 0.8457 0.0000
vt 0.6182 0.8214 0.0000
vt 0.6831 0.8205 0.0000
vt 0.6176 0.7985 0.0000
vt 0.6825 0.7961 0.0000
vt 0.6165 0.7798 0.0000
vt 0.6813 0.7762 0.0000
vt 0.6080 0.8463 0.0000
vt 0.5431 0.8455 0.0000
vt 0.5431 0.8212 0.0000
vt 0.6080 0.8203 0.0000
vt 0.5376 0.9160 0.0000
vt 0.5413 0.8513 0.0000
vt 0.5599 0.8513 0.0000
vt 0.5575 0.9160 0.0000
vt 0.5828 0.8513 0.0000
vt 0.5820 0.9160 0.0000
vt 0.6072 0.8513 0.0000
vt 0.6080 0.9160 0.0000
vt 0.6301 0.8513 0.0000
vt 0.6325 0.9160 0.0000
vt 0.6488 0.8513 0.0000
vt 0.6524 0.9160 0.0000
vt 0.8378 0.8463 0.0000
vt 0.7730 0.8426 0.0000
vt 0.7741 0.8239 0.0000
vt 0.8390 0.8263 0.0000
vt 0.4168 0.9789 0.0000
vt 0.4519 0.9181 0.0000
vt 0.4397 0.9872 0.0000
vt 0.4640 0.9872 0.0000
vt 0.4869 0.9789 0.0000
vt 0.5056 0.9632 0.0000
vt 0.5178 0.9421 0.0000
vt 0.5220 0.9181 0.0000
vt 0.5178 0.8941 0.0000
vt 0.5056 0.8730 0.0000
vt 0.4869 0.8573 0.0000
vt 0.4640 0.8490 0.0000
vt 0.4397 0.8490 0.0000
vt 0.4168 0.8573 0.0000
vt 0.3981 0.8730 0.0000
vt 0.3859 0.8941 0.0000
vt 0.3817 0.9181 0.0000
vt 0.3859 0.9421 0.0000
vt 0.3981 0.9632 0.0000
vt 0.8141 0.9856 0.0000
vt 0.7885 0.9856 0.0000
vt 0.7901 0.9209 0.0000
vt 0.8141 0.9209 0.0000
vt 0.7660 0.9856 0.0000
vt 0.7690 0.9209 0.0000
vt 0.8610 0.8523 0.0000
vt 0.8809 0.8523 0.0000
vt 0.8833 0.9170 0.0000
vt 0.8646 0.9170 0.0000
vt 0.9054 0.8523 0.0000
vt 0.9062 0.9170 0.0000
vt 0.9314 0.8523 0.0000
vt 0.9305 0.9170 0.0000
vt 0.9558 0.8523 0.0000
vt 0.9534 0.9170 0.0000
vt 0.9758 0.8523 0.0000
vt 0.9721 0.9170 0.0000
vt 0.9096 0.7492 0.0000
vt 0.9096 0.7718 0.0000
vt 0.8448 0.7734 0.0000
vt 0.8448 0.7523 0.0000
vt 0.9096 0.7974 0.0000
vt 0.8448 0.7974 0.0000
vt 0.9096 0.8230 0.0000
vt 0.8448 0.8214 0.0000
vt 0.9096 0.8455 0.0000
vt 0.8448 0.8425 0.0000
vt 0.8670 0.9211 0.0000
vt 0.8869 0.9211 0.0000
vt 0.8893 0.9859 0.0000
vt 0.8706 0.9859 0.0000
vt 0.9113 0.9211 0.0000
vt 0.9122 0.9859 0.0000
vt 0.9374 0.9211 0.0000
vt 0.9365 0.9859 0.0000
vt 0.9618 0.9211 0.0000
vt 0.9594 0.9859 0.0000
vt 0.9817 0.9211 0.0000
vt 0.9781 0.9859 0.0000
vt 0.8623 0.9856 0.0000
vt 0.8397 0.9856 0.0000
vt 0.8381 0.9209 0.0000
vt 0.8592 0.9209 0.0000
vt 0.4717 0.7002 0.0000
vt 0.4946 0.7086 0.0000
vt 0.4595 0.7693 0.0000
vt 0.5133 0.7242 0.0000
vt 0.5255 0.7453 0.0000
vt 0.5297 0.7693 0.0000
vt 0.5255 0.7933 0.0000
vt 0.5133 0.8144 0.0000
vt 0.4946 0.8301 0.0000
vt 0.4717 0.8384 0.0000
vt 0.4473 0.8384 0.0000
vt 0.4244 0.8301 0.0000
vt 0.4058 0.8144 0.0000
vt 0.3936 0.7933 0.0000
vt 0.3894 0.7693 0.0000
vt 0.3936 0.7453 0.0000
vt 0.4058 0.7242 0.0000
vt 0.4244 0.7086 0.0000
vt 0.4473 0.7002 0.0000
vt 0.7989 0.9160 0.0000
vt 0.7733 0.9160 0.0000
vt 0.7749 0.8513 0.0000
vt 0.7989 0.8513 0.0000
vt 0.7507 0.9160 0.0000
vt 0.7538 0.8513 0.0000
vt 0.9205 0.8434 0.0000
vt 0.9205 0.8234 0.0000
vt 0.9852 0.8211 0.0000
vt 0.9852 0.8397 0.0000
vt 0.9205 0.7990 0.0000
vt 0.9852 0.7982 0.0000
vt 0.9205 0.7730 0.0000
vt 0.9852 0.7738 0.0000
vt 0.9205 0.7485 0.0000
vt 0.9852 0.7509 0.0000
vt 0.9205 0.7286 0.0000
vt 0.9852 0.7322 0.0000
vt 0.6968 0.6830 0.0000
vt 0.7193 0.6830 0.0000
vt 0.7210 0.7478 0.0000
vt 0.6999 0.7478 0.0000
vt 0.7450 0.6830 0.0000
vt 0.7450 0.7478 0.0000
vt 0.7706 0.6830 0.0000
vt 0.7690 0.7478 0.0000
vt 0.7931 0.6830 0.0000
vt 0.7901 0.7478 0.0000
vt 0.7655 0.9856 0.0000
vt 0.7455 0.9856 0.0000
vt 0.7432 0.9209 0.0000
vt 0.7618 0.9209 0.0000
vt 0.7211 0.9856 0.0000
vt 0.7203 0.9209 0.0000
vt 0.6951 0.9856 0.0000
vt 0.6959 0.9209 0.0000
vt 0.6706 0.9856 0.0000
vt 0.6730 0.9209 0.0000
vt 0.6507 0.9856 0.0000
vt 0.6543 0.9209 0.0000
vt 0.8471 0.9160 0.0000
vt 0.8245 0.9160 0.0000
vt 0.8229 0.8513 0.0000
vt 0.8440 0.8513 0.0000
vt 0.5192 0.8045 0.0000
vt 0.5036 0.8231 0.0000
vt 0.4585 0.7694 0.0000
vt 0.4825 0.8353 0.0000
vt 0.4585 0.8396 0.0000
vt 0.4345 0.8353 0.0000
vt 0.4134 0.8231 0.0000
vt 0.3977 0.8045 0.0000
vt 0.3894 0.7816 0.0000
vt 0.3894 0.7572 0.0000
vt 0.3977 0.7343 0.0000
vt 0.4134 0.7156 0.0000
vt 0.4345 0.7035 0.0000
vt 0.4585 0.6992 0.0000
vt 0.4825 0.7035 0.0000
vt 0.5036 0.7156 0.0000
vt 0.5192 0.7343 0.0000
vt 0.5276 0.7572 0.0000
vt 0.5276 0.7816 0.0000
# 258 texture coords

o car_22
g car_22
usemtl 01___Default
s 1
f 1/1/1 2/2/1 3/3/2 
f 3/3/2 4/4/2 1/1/1 
f 4/4/2 3/3/2 5/5/3 
f 5/5/3 6/6/3 4/4/2 
f 6/7/3 5/8/3 7/9/4 
f 7/9/4 8/10/4 6/7/3 
f 8/10/4 7/9/4 9/11/5 
f 9/11/5 10/12/5 8/10/4 
f 10/12/5 9/11/5 11/13/6 
f 11/13/6 12/14/6 10/12/5 
f 12/15/6 11/16/6 13/17/7 
f 13/17/7 14/18/7 12/15/6 
f 14/18/7 13/17/7 15/19/8 
f 15/19/8 16/20/8 14/18/7 
f 16/21/8 15/22/8 17/23/9 
f 17/23/9 18/24/9 16/21/8 
f 18/24/9 17/23/9 19/25/10 
f 19/25/10 20/26/10 18/24/9 
f 20/26/10 19/25/10 21/27/11 
f 21/27/11 22/28/11 20/26/10 
f 22/28/11 21/27/11 23/29/12 
f 23/29/12 24/30/12 22/28/11 
f 24/31/12 23/32/12 25/33/13 
f 25/33/13 26/34/13 24/31/12 
f 26/34/13 25/33/13 27/35/14 
f 27/35/14 28/36/14 26/34/13 
f 28/36/14 27/35/14 29/37/15 
f 29/37/15 30/38/15 28/36/14 
f 30/39/15 29/40/15 31/41/16 
f 31/41/16 32/42/16 30/39/15 
f 32/42/16 31/41/16 33/43/17 
f 33/43/17 34/44/17 32/42/16 
f 34/45/17 33/46/17 35/47/18 
f 35/47/18 36/48/18 34/45/17 
f 36/48/18 35/47/18 2/2/1 
f 2/2/1 1/1/1 36/48/18 
s 2
f 2/49/19 37/50/19 3/51/19 
f 3/51/19 37/50/19 5/52/19 
f 5/52/19 37/50/19 7/53/19 
f 7/53/19 37/50/19 9/54/19 
f 9/54/19 37/50/19 11/55/19 
f 11/55/19 37/50/19 13/56/19 
f 13/56/19 37/50/19 15/57/19 
f 15/57/19 37/50/19 17/58/19 
f 17/58/19 37/50/19 19/59/19 
f 19/59/19 37/50/19 21/60/19 
f 21/60/19 37/50/19 23/61/19 
f 23/61/19 37/50/19 25/62/19 
f 25/62/19 37/50/19 27/63/19 
f 27/63/19 37/50/19 29/64/19 
f 29/64/19 37/50/19 31/65/19 
f 31/65/19 37/50/19 33/66/19 
f 33/66/19 37/50/19 35/67/19 
f 35/67/19 37/50/19 2/49/19 
s 1
f 38/68/20 39/69/20 40/70/2 
f 40/70/2 41/71/2 38/68/20 
f 41/71/2 40/70/2 42/72/3 
f 42/72/3 43/73/3 41/71/2 
f 43/74/3 42/75/3 44/76/4 
f 44/76/4 45/77/4 43/74/3 
f 45/77/4 44/76/4 46/78/5 
f 46/78/5 47/79/5 45/77/4 
f 47/79/5 46/78/5 48/80/6 
f 48/80/6 49/81/6 47/79/5 
f 49/81/6 48/80/6 50/82/7 
f 50/82/7 51/83/7 49/81/6 
f 51/83/7 50/82/7 52/84/8 
f 52/84/8 53/85/8 51/83/7 
f 53/86/8 52/87/8 54/88/9 
f 54/88/9 55/89/9 53/86/8 
f 55/89/9 54/88/9 56/90/21 
f 56/90/21 57/91/21 55/89/9 
f 57/91/21 56/90/21 58/92/11 
f 58/92/11 59/93/11 57/91/21 
f 59/94/11 58/95/11 60/96/12 
f 60/96/12 61/97/12 59/94/11 
f 61/98/12 60/99/12 62/100/13 
f 62/100/13 63/101/13 61/98/12 
f 63/101/13 62/100/13 64/102/14 
f 64/102/14 65/103/14 63/101/13 
f 65/103/14 64/102/14 66/104/15 
f 66/104/15 67/105/15 65/103/14 
f 67/105/15 66/104/15 68/106/16 
f 68/106/16 69/107/16 67/105/15 
f 69/107/16 68/106/16 70/108/17 
f 70/108/17 71/109/17 69/107/16 
f 71/110/17 70/111/17 72/112/18 
f 72/112/18 73/113/18 71/110/17 
f 73/113/18 72/112/18 39/69/20 
f 39/69/20 38/68/20 73/113/18 
s 2
f 39/114/19 74/115/19 40/116/19 
f 40/116/19 74/115/19 42/117/19 
f 42/117/19 74/115/19 44/118/19 
f 44/118/19 74/115/19 46/119/19 
f 46/119/19 74/115/19 48/120/19 
f 48/120/19 74/115/19 50/121/19 
f 50/121/19 74/115/19 52/122/19 
f 52/122/19 74/115/19 54/123/19 
f 54/123/19 74/115/19 56/124/19 
f 56/124/19 74/115/19 58/125/19 
f 58/125/19 74/115/19 60/126/19 
f 60/126/19 74/115/19 62/127/19 
f 62/127/19 74/115/19 64/128/19 
f 64/128/19 74/115/19 66/129/19 
f 66/129/19 74/115/19 68/130/19 
f 68/130/19 74/115/19 70/131/19 
f 70/131/19 74/115/19 72/132/19 
f 72/132/19 74/115/19 39/114/19 
s 1
f 75/133/22 76/134/23 77/135/23 
f 77/135/23 78/136/22 75/133/22 
f 76/134/23 79/137/24 80/138/24 
f 80/138/24 77/135/23 76/134/23 
f 79/139/24 81/140/25 82/141/25 
f 82/141/25 80/142/24 79/139/24 
f 81/140/25 83/143/26 84/144/26 
f 84/144/26 82/141/25 81/140/25 
f 83/143/26 85/145/27 86/146/27 
f 86/146/27 84/144/26 83/143/26 
f 85/145/27 87/147/28 88/148/28 
f 88/148/28 86/146/27 85/145/27 
f 87/147/28 89/149/29 90/150/29 
f 90/150/29 88/148/28 87/147/28 
f 89/151/29 91/152/30 92/153/30 
f 92/153/30 90/154/29 89/151/29 
f 91/152/30 93/155/31 94/156/31 
f 94/156/31 92/153/30 91/152/30 
f 93/155/31 95/157/32 96/158/32 
f 96/158/32 94/156/31 93/155/31 
f 95/157/32 97/159/33 98/160/33 
f 98/160/33 96/158/32 95/157/32 
f 97/161/33 99/162/34 100/163/34 
f 100/163/34 98/164/33 97/161/33 
f 99/162/34 101/165/35 102/166/35 
f 102/166/35 100/163/34 99/162/34 
f 101/165/35 103/167/36 104/168/36 
f 104/168/36 102/166/35 101/165/35 
f 103/167/36 105/169/37 106/170/37 
f 106/170/37 104/168/36 103/167/36 
f 105/169/37 107/171/38 108/172/38 
f 108/172/38 106/170/37 105/169/37 
f 107/173/38 109/174/39 110/175/39 
f 110/175/39 108/176/38 107/173/38 
f 109/174/39 75/133/22 78/136/22 
f 78/136/22 110/175/39 109/174/39 
s 2
f 78/177/40 77/178/40 111/179/41 
f 77/178/40 80/180/42 111/179/41 
f 80/180/42 82/181/42 111/179/41 
f 82/181/42 84/182/42 111/179/41 
f 84/182/42 86/183/43 111/179/41 
f 86/183/43 88/184/43 111/179/41 
f 88/184/43 90/185/43 111/179/41 
f 90/185/43 92/186/41 111/179/41 
f 92/186/41 94/187/41 111/179/41 
f 94/187/41 96/188/41 111/179/41 
f 96/188/41 98/189/41 111/179/41 
f 98/189/41 100/190/41 111/179/41 
f 100/190/41 102/191/41 111/179/41 
f 102/191/41 104/192/40 111/179/41 
f 104/192/40 106/193/40 111/179/41 
f 106/193/40 108/194/40 111/179/41 
f 108/194/40 110/195/40 111/179/41 
f 110/195/40 78/177/40 111/179/41 
s 1
f 112/196/44 113/197/23 114/198/23 
f 114/198/23 115/199/44 112/196/44 
f 113/197/23 116/200/24 117/201/24 
f 117/201/24 114/198/23 113/197/23 
f 116/202/24 118/203/25 119/204/25 
f 119/204/25 117/205/24 116/202/24 
f 118/203/25 120/206/26 121/207/26 
f 121/207/26 119/204/25 118/203/25 
f 120/206/26 122/208/27 123/209/27 
f 123/209/27 121/207/26 120/206/26 
f 122/208/27 124/210/28 125/211/28 
f 125/211/28 123/209/27 122/208/27 
f 124/210/28 126/212/29 127/213/29 
f 127/213/29 125/211/28 124/210/28 
f 126/214/29 128/215/30 129/216/30 
f 129/216/30 127/217/29 126/214/29 
f 128/215/30 130/218/45 131/219/45 
f 131/219/45 129/216/30 128/215/30 
f 130/218/45 132/220/32 133/221/32 
f 133/221/32 131/219/45 130/218/45 
f 132/220/32 134/222/33 135/223/33 
f 135/223/33 133/221/32 132/220/32 
f 134/224/33 136/225/34 137/226/34 
f 137/226/34 135/227/33 134/224/33 
f 136/225/34 138/228/35 139/229/35 
f 139/229/35 137/226/34 136/225/34 
f 138/228/35 140/230/36 141/231/36 
f 141/231/36 139/229/35 138/228/35 
f 140/230/36 142/232/37 143/233/37 
f 143/233/37 141/231/36 140/230/36 
f 142/232/37 144/234/38 145/235/38 
f 145/235/38 143/233/37 142/232/37 
f 144/236/38 146/237/39 147/238/39 
f 147/238/39 145/239/38 144/236/38 
f 146/237/39 112/196/44 115/199/44 
f 115/199/44 147/238/39 146/237/39 
s 2
f 115/240/40 114/241/40 148/242/41 
f 114/241/40 117/243/42 148/242/41 
f 117/243/42 119/244/42 148/242/41 
f 119/244/42 121/245/42 148/242/41 
f 121/245/42 123/246/43 148/242/41 
f 123/246/43 125/247/43 148/242/41 
f 125/247/43 127/248/43 148/242/41 
f 127/248/43 129/249/41 148/242/41 
f 129/249/41 131/250/41 148/242/41 
f 131/250/41 133/251/41 148/242/41 
f 133/251/41 135/252/41 148/242/41 
f 135/252/41 137/253/41 148/242/41 
f 137/253/41 139/254/41 148/242/41 
f 139/254/41 141/255/40 148/242/41 
f 141/255/40 143/256/40 148/242/41 
f 143/256/40 145/257/40 148/242/41 
f 145/257/40 147/258/40 148/242/41 
f 147/258/40 115/240/40 148/242/41 
# 216 faces

