{"asset":{"generator":"glTF-Transform v1.2.3","version":"2.0"},"accessors":[{"type":"VEC3","componentType":5126,"count":7012,"max":[1,33.66751480102539,1],"min":[-1,-1,-1],"bufferView":0,"byteOffset":0},{"type":"VEC3","componentType":5126,"count":7012,"bufferView":0,"byteOffset":12},{"type":"SCALAR","componentType":5123,"count":13482,"bufferView":1,"byteOffset":0}],"bufferViews":[{"buffer":0,"byteOffset":0,"byteLength":168288,"byteStride":24,"target":34962},{"buffer":0,"byteOffset":168288,"byteLength":26964,"target":34963}],"buffers":[{"uri":"Queen.bin","byteLength":195252}],"materials":[{"name":"Material","doubleSided":true,"pbrMetallicRoughness":{}}],"meshes":[{"name":"Cylinder.004","primitives":[{"attributes":{"POSITION":0,"NORMAL":1},"mode":4,"material":0,"indices":2}]}],"nodes":[{"name":"Cylinder","translation":[0,0.1078370064496994,0],"scale":[0.500300407409668,0.06942161917686462,0.5001501441001892],"mesh":0}],"scenes":[{"name":"Scene","nodes":[0]}],"scene":0}