{"asset":{"generator":"glTF-Transform v1.2.3","version":"2.0"},"accessors":[{"type":"VEC3","componentType":5126,"count":2684,"max":[1.1249637603759766,2.8215413093566895,1.1249637603759766],"min":[-1.1249638795852661,-0.9820243716239929,-1.1249639987945557],"bufferView":0,"byteOffset":0},{"type":"VEC3","componentType":5126,"count":2684,"bufferView":0,"byteOffset":12},{"type":"SCALAR","componentType":5123,"count":4596,"bufferView":1,"byteOffset":0}],"bufferViews":[{"buffer":0,"byteOffset":0,"byteLength":64416,"byteStride":24,"target":34962},{"buffer":0,"byteOffset":64416,"byteLength":9192,"target":34963}],"buffers":[{"uri":"Rook.bin","byteLength":73608}],"materials":[{"name":"Material","doubleSided":true,"pbrMetallicRoughness":{}}],"meshes":[{"name":"Cylinder","primitives":[{"attributes":{"POSITION":0,"NORMAL":1},"mode":4,"material":0,"indices":2}]}],"nodes":[{"name":"Cylinder","translation":[0,0.35737621784210205,0],"scale":[0.35556700825691223,0.35600000619888306,0.35556697845458984],"mesh":0}],"scenes":[{"name":"Scene","nodes":[0]}],"scene":0}