{"asset":{"generator":"glTF-Transform v1.2.3","version":"2.0"},"accessors":[{"type":"VEC3","componentType":5126,"count":5102,"max":[1,2.6336557865142822,1],"min":[-0.9999999403953552,-0.977392315864563,-1],"bufferView":0,"byteOffset":0},{"type":"VEC3","componentType":5126,"count":5102,"bufferView":0,"byteOffset":12},{"type":"SCALAR","componentType":5123,"count":8826,"bufferView":1,"byteOffset":0}],"bufferViews":[{"buffer":0,"byteOffset":0,"byteLength":122448,"byteStride":24,"target":34962},{"buffer":0,"byteOffset":122448,"byteLength":17652,"target":34963}],"buffers":[{"uri":"Pawn.bin","byteLength":140100}],"materials":[{"name":"Material","doubleSided":true,"pbrMetallicRoughness":{}}],"meshes":[{"name":"Cylinder","primitives":[{"attributes":{"POSITION":0,"NORMAL":1},"mode":4,"material":0,"indices":2}]}],"nodes":[{"name":"Cylinder","translation":[0,0.5088697075843811,0],"scale":[0.5030204057693481,0.503000020980835,0.5030204057693481],"mesh":0}],"scenes":[{"name":"Scene","nodes":[0]}],"scene":0}