{"asset":{"generator":"glTF-Transform v1.2.3","version":"2.0"},"accessors":[{"type":"VEC3","componentType":5126,"count":4658,"max":[0.9999998211860657,3.6349098682403564,0.9999996423721313],"min":[-0.9999997615814209,-0.7727596163749695,-0.9999998211860657],"bufferView":0,"byteOffset":0},{"type":"VEC3","componentType":5126,"count":4658,"bufferView":0,"byteOffset":12},{"type":"SCALAR","componentType":5123,"count":6936,"bufferView":1,"byteOffset":0}],"bufferViews":[{"buffer":0,"byteOffset":0,"byteLength":111792,"byteStride":24,"target":34962},{"buffer":0,"byteOffset":111792,"byteLength":13872,"target":34963}],"buffers":[{"uri":"Bishop.bin","byteLength":125664}],"materials":[{"name":"Material","doubleSided":true,"pbrMetallicRoughness":{}}],"meshes":[{"name":"Cylinder","primitives":[{"attributes":{"POSITION":0,"NORMAL":1},"mode":4,"material":0,"indices":2}]}],"nodes":[{"name":"Cylinder","translation":[0,0.3335033059120178,0],"rotation":[0,0.7071070671081543,0,0.7071065902709961],"scale":[0.40000009536743164,0.4000000059604645,0.40000009536743164],"mesh":0}],"scenes":[{"name":"Scene","nodes":[0]}],"scene":0}