{"asset":{"generator":"glTF-Transform v1.2.3","version":"2.0"},"accessors":[{"type":"VEC3","componentType":5126,"count":12688,"max":[8.936527252197266,26.5790958404541,4.251558303833008],"min":[-8.963845252990723,-4.247471809387207,-13.648812294006348],"bufferView":0,"byteOffset":0},{"type":"VEC3","componentType":5126,"count":12688,"bufferView":0,"byteOffset":12},{"type":"SCALAR","componentType":5123,"count":20799,"bufferView":1,"byteOffset":0}],"bufferViews":[{"buffer":0,"byteOffset":0,"byteLength":304512,"byteStride":24,"target":34962},{"buffer":0,"byteOffset":304512,"byteLength":41600,"target":34963}],"buffers":[{"uri":"Knight.bin","byteLength":346112}],"materials":[{"name":"Material","doubleSided":true,"pbrMetallicRoughness":{"baseColorFactor":[0.8999999761581421,0.8999999761581421,0.8999999761581421,1],"roughnessFactor":0.5,"metallicFactor":0}}],"meshes":[{"name":"Cylinder.001","primitives":[{"attributes":{"POSITION":0,"NORMAL":1},"mode":4,"material":0,"indices":2}]}],"nodes":[{"name":"Cylinder.001","translation":[0.004724711179733276,1.5059137344360352,0.23656216263771057],"rotation":[0,0,-1,-6.397578431460715e-7],"scale":[0.05621921271085739,0.0560000017285347,0.05621921643614769],"mesh":0}],"scenes":[{"name":"Scene","nodes":[0]}],"scene":0}