{"asset":{"generator":"glTF-Transform v1.1.1","version":"2.0"},"accessors":[{"type":"VEC3","componentType":5126,"count":2478,"max":[22.94970703125,22.577617645263672,-12.29030990600586],"min":[-45.76599884033203,5.377490997314453,-81.00601959228516],"bufferView":0,"byteOffset":0},{"type":"VEC3","componentType":5126,"count":2478,"bufferView":0,"byteOffset":12},{"type":"VEC2","componentType":5126,"count":2478,"bufferView":0,"byteOffset":24},{"type":"SCALAR","componentType":5123,"count":5262,"bufferView":1,"byteOffset":0}],"bufferViews":[{"buffer":0,"byteOffset":0,"byteLength":79296,"byteStride":32,"target":34962},{"buffer":0,"byteOffset":79296,"byteLength":10524,"target":34963}],"samplers":[{"wrapS":10497,"wrapT":10497}],"textures":[{"source":0,"sampler":0}],"images":[{"name":"bluegrid3","mimeType":"image/png","uri":"collision-world.png"}],"buffers":[{"uri":"collision-world.bin","byteLength":89820}],"materials":[{"name":"Material.001","doubleSided":true,"pbrMetallicRoughness":{"metallicFactor":0,"baseColorTexture":{"index":0}}}],"meshes":[{"name":"Cube.008","primitives":[{"attributes":{"POSITION":0,"NORMAL":1,"TEXCOORD_0":2},"mode":4,"material":0,"indices":3}]}],"nodes":[{"name":"Cube.004","translation":[7.67926025390625,-5.592729568481445,26.37653923034668],"scale":[0.5,0.5,0.5],"mesh":0}],"scenes":[{"name":"Scene","nodes":[0]}],"scene":0}